<svg width="505" height="469" viewBox="0 0 505 469" fill="none" xmlns="http://www.w3.org/2000/svg">
<path d="M238.572 468.06H6.852C5.03474 468.06 3.2919 467.338 2.0069 466.053C0.721905 464.768 0 463.025 0 461.208V6.792C0.0158224 4.98515 0.744705 3.2577 2.02799 1.98565C3.31128 0.713595 5.04508 -6.92711e-05 6.852 5.04306e-09H238.572C239.472 5.04307e-09 240.363 0.177231 241.194 0.521576C242.025 0.865921 242.781 1.37064 243.417 2.0069C244.053 2.64317 244.558 3.39853 244.902 4.22986C245.247 5.06118 245.424 5.95218 245.424 6.852V461.208C245.424 462.108 245.247 462.999 244.902 463.83C244.558 464.661 244.053 465.417 243.417 466.053C242.781 466.689 242.025 467.194 241.194 467.538C240.363 467.883 239.472 468.06 238.572 468.06ZM6.852 0.240001C5.11527 0.243173 3.45059 0.934488 2.22254 2.16254C0.994487 3.39059 0.303172 5.05528 0.3 6.792V461.208C0.303172 462.945 0.994487 464.609 2.22254 465.837C3.45059 467.066 5.11527 467.757 6.852 467.76H238.572C240.309 467.757 241.973 467.066 243.201 465.837C244.43 464.609 245.121 462.945 245.124 461.208V6.792C245.121 5.05528 244.43 3.39059 243.201 2.16254C241.973 0.934488 240.309 0.243173 238.572 0.240001H6.852Z" fill="#4F4E4E"/>
<path d="M498.133 468.06H266.413C264.595 468.06 262.852 467.338 261.567 466.053C260.282 464.768 259.561 463.025 259.561 461.208V6.792C259.576 4.98515 260.305 3.2577 261.589 1.98565C262.872 0.713595 264.606 -6.92711e-05 266.413 5.04306e-09H498.133C499.95 5.04307e-09 501.693 0.721905 502.978 2.0069C504.263 3.2919 504.985 5.03474 504.985 6.852V461.208C504.985 462.108 504.807 462.999 504.463 463.83C504.119 464.661 503.614 465.417 502.978 466.053C502.341 466.689 501.586 467.194 500.755 467.538C499.923 467.883 499.032 468.06 498.133 468.06ZM266.413 0.240001C264.676 0.243173 263.011 0.934488 261.783 2.16254C260.555 3.39059 259.864 5.05528 259.861 6.792V461.208C259.864 462.945 260.555 464.609 261.783 465.837C263.011 467.066 264.676 467.757 266.413 467.76H498.133C499.869 467.757 501.534 467.066 502.762 465.837C503.99 464.609 504.681 462.945 504.685 461.208V6.792C504.681 5.05528 503.99 3.39059 502.762 2.16254C501.534 0.934488 499.869 0.243173 498.133 0.240001H266.413Z" fill="#4F4E4E"/>
<path d="M88.153 135.9L90.097 139.824L94.441 140.46L91.297 143.52L92.041 147.84L88.153 145.8L84.277 147.84L85.021 143.52L81.877 140.46L86.221 139.824L88.153 135.9Z" fill="#EBEBEB"/>
<path d="M476.532 320.976L478.476 324.912L482.82 325.548L479.676 328.596L480.42 332.928L476.532 330.888L472.656 332.928L473.4 328.596L470.256 325.548L474.6 324.912L476.532 320.976Z" fill="#F5F5F5"/>
<path d="M399.612 435.084L401.556 439.008L405.888 439.644L402.744 442.704L403.488 447.024L399.612 444.984L395.736 447.024L396.468 442.704L393.336 439.644L397.668 439.008L399.612 435.084Z" fill="#F5F5F5"/>
<path d="M223.62 66.18L224.34 67.644L225.96 67.884C226.051 67.8958 226.136 67.9331 226.206 67.9916C226.276 68.05 226.328 68.1272 226.355 68.2141C226.383 68.301 226.385 68.3939 226.362 68.4821C226.339 68.5703 226.291 68.65 226.224 68.712L225.024 69.852L225.3 71.46C225.315 71.5495 225.304 71.6411 225.269 71.7249C225.234 71.8086 225.177 71.8812 225.104 71.9345C225.031 71.9879 224.944 72.02 224.854 72.0273C224.764 72.0346 224.673 72.0169 224.592 71.976L223.152 71.208L221.712 71.976C221.632 72.0169 221.541 72.0346 221.451 72.0273C221.36 72.02 221.274 71.9879 221.201 71.9345C221.127 71.8812 221.07 71.8086 221.036 71.7249C221.001 71.6411 220.99 71.5495 221.004 71.46L221.268 69.852L220.068 68.712C220.001 68.6492 219.953 68.5685 219.931 68.4794C219.908 68.3903 219.912 68.2966 219.941 68.2094C219.97 68.1222 220.023 68.0452 220.095 67.9875C220.166 67.9298 220.253 67.8939 220.344 67.884L221.952 67.644L222.672 66.18C222.701 66.0764 222.763 65.9851 222.849 65.9201C222.934 65.855 223.039 65.8198 223.146 65.8198C223.254 65.8198 223.358 65.855 223.444 65.9201C223.53 65.9851 223.592 66.0764 223.62 66.18Z" fill="#EBEBEB"/>
<path d="M25.4287 416.4L26.1488 417.852L27.7568 418.092C27.848 418.105 27.934 418.143 28.0047 418.202C28.0755 418.261 28.1283 418.338 28.157 418.426C28.1858 418.513 28.1894 418.607 28.1674 418.697C28.1455 418.786 28.0988 418.868 28.0328 418.932L26.8328 420.06L27.1088 421.668C27.1229 421.758 27.1121 421.849 27.0775 421.933C27.0429 422.017 26.9858 422.089 26.9126 422.143C26.8394 422.196 26.7528 422.228 26.6625 422.235C26.5722 422.243 26.4816 422.225 26.4008 422.184L24.9607 421.428L23.5207 422.184C23.4399 422.225 23.3493 422.243 23.259 422.235C23.1687 422.228 23.0821 422.196 23.0089 422.143C22.9357 422.089 22.8786 422.017 22.844 421.933C22.8094 421.849 22.7986 421.758 22.8127 421.668L23.0888 420.06L21.8888 418.932C21.8229 418.869 21.7761 418.788 21.7535 418.699C21.7309 418.611 21.7335 418.518 21.7609 418.43C21.7883 418.343 21.8395 418.265 21.9087 418.205C21.9779 418.146 22.0624 418.106 22.1527 418.092L23.7607 417.852L24.4928 416.4C24.5248 416.301 24.5874 416.215 24.6715 416.154C24.7555 416.093 24.8568 416.06 24.9607 416.06C25.0647 416.06 25.166 416.093 25.25 416.154C25.3341 416.215 25.3967 416.301 25.4287 416.4Z" fill="#F5F5F5"/>
<path d="M57.7927 50.7599L58.5127 52.2239L60.1327 52.4519C60.223 52.4663 60.3075 52.5056 60.3767 52.5654C60.4459 52.6251 60.4971 52.703 60.5245 52.7902C60.5519 52.8775 60.5545 52.9706 60.5319 53.0592C60.5093 53.1478 60.4625 53.2284 60.3967 53.2919L59.1967 54.4919L59.4727 56.0879C59.4918 56.1785 59.4844 56.2727 59.4513 56.3592C59.4181 56.4456 59.3606 56.5206 59.2858 56.5752C59.211 56.6297 59.1219 56.6615 59.0295 56.6666C58.937 56.6716 58.845 56.6499 58.7647 56.6039L57.3247 55.8479L55.8847 56.6039C55.8043 56.6499 55.7123 56.6716 55.6199 56.6666C55.5274 56.6615 55.4384 56.6297 55.3636 56.5752C55.2887 56.5206 55.2313 56.4456 55.1981 56.3592C55.1649 56.2727 55.1575 56.1785 55.1767 56.0879L55.4407 54.4919L54.2407 53.2919C54.1746 53.2276 54.128 53.1461 54.106 53.0566C54.084 52.9671 54.0876 52.8733 54.1164 52.7857C54.1451 52.6982 54.1979 52.6205 54.2687 52.5614C54.3395 52.5024 54.4254 52.4645 54.5167 52.4519L56.1247 52.2239L56.8927 50.7599C56.9312 50.6727 56.9943 50.5986 57.0742 50.5465C57.154 50.4945 57.2473 50.4668 57.3427 50.4668C57.438 50.4668 57.5313 50.4945 57.6112 50.5465C57.6911 50.5986 57.7541 50.6727 57.7927 50.7599Z" fill="#EBEBEB"/>
<path d="M55.8482 339.984C55.8506 340.3 55.759 340.61 55.5851 340.874C55.4112 341.138 55.1627 341.344 54.8713 341.467C54.5799 341.59 54.2586 341.623 53.9483 341.563C53.6379 341.503 53.3524 341.352 53.128 341.129C52.9036 340.906 52.7504 340.622 52.6878 340.312C52.6252 340.002 52.6561 339.68 52.7766 339.388C52.897 339.096 53.1016 338.846 53.3643 338.67C53.627 338.494 53.936 338.4 54.2522 338.4C54.6734 338.4 55.0776 338.567 55.3765 338.863C55.6755 339.16 55.845 339.563 55.8482 339.984Z" fill="#EBEBEB"/>
<path d="M283.295 140.268C283.298 140.584 283.206 140.894 283.032 141.158C282.858 141.422 282.61 141.629 282.319 141.751C282.027 141.874 281.706 141.907 281.395 141.847C281.085 141.787 280.8 141.636 280.575 141.413C280.351 141.19 280.198 140.906 280.135 140.596C280.073 140.286 280.103 139.964 280.224 139.672C280.344 139.38 280.549 139.13 280.812 138.954C281.074 138.778 281.383 138.684 281.699 138.684C281.908 138.683 282.116 138.722 282.309 138.801C282.503 138.88 282.679 138.997 282.827 139.144C282.976 139.291 283.093 139.466 283.174 139.659C283.254 139.852 283.295 140.059 283.295 140.268Z" fill="#EBEBEB"/>
<path d="M200.544 52.0799C200.544 52.3955 200.45 52.7041 200.275 52.9666C200.099 53.229 199.85 53.4336 199.558 53.5544C199.267 53.6752 198.946 53.7068 198.636 53.6452C198.327 53.5836 198.042 53.4316 197.819 53.2084C197.596 52.9852 197.444 52.7008 197.382 52.3913C197.321 52.0817 197.352 51.7608 197.473 51.4691C197.594 51.1775 197.798 50.9282 198.061 50.7529C198.323 50.5775 198.632 50.4839 198.948 50.4839C199.37 50.487 199.774 50.6562 200.073 50.9548C200.371 51.2534 200.54 51.6576 200.544 52.0799Z" fill="#F5F5F5"/>
<path d="M203.072 441.052C207.813 439.933 210.749 435.183 209.63 430.442C208.511 425.701 203.761 422.765 199.02 423.884C194.279 425.003 191.343 429.753 192.462 434.494C193.581 439.235 198.331 442.171 203.072 441.052Z" fill="#F0F0F0"/>
<path d="M198.012 427.308C196.205 427.304 194.444 427.876 192.984 428.94C192.238 430.651 192.055 432.554 192.461 434.376C192.867 436.197 193.841 437.843 195.243 439.075C196.644 440.307 198.401 441.062 200.26 441.231C202.118 441.401 203.983 440.975 205.584 440.016C206.293 438.705 206.649 437.233 206.617 435.743C206.586 434.253 206.168 432.797 205.405 431.517C204.641 430.237 203.559 429.177 202.263 428.442C200.967 427.706 199.502 427.319 198.012 427.32V427.308Z" fill="#E6E6E6"/>
<path d="M129.707 279.168H56.6875V246.204L129.707 159.396H164.652V248.076H182.759V279.168H164.652V306.144H129.707V279.168ZM129.707 248.076V202.668L91.1155 248.076H129.707Z" fill="#D5FF40"/>
<path d="M195.251 233.412C195.251 205.98 200.187 186.78 210.059 175.812C219.931 164.844 234.975 159.364 255.191 159.372C264.895 159.372 272.867 160.572 279.107 162.972C284.775 165.015 289.966 168.196 294.359 172.32C298.061 175.855 301.198 179.939 303.659 184.428C306.093 189.115 307.928 194.09 309.119 199.236C311.832 210.229 313.186 221.513 313.151 232.836C313.151 259.012 308.723 278.168 299.867 290.304C291.011 302.44 275.759 308.512 254.111 308.52C241.967 308.52 232.155 306.584 224.675 302.712C217.134 298.777 210.783 292.898 206.279 285.684C202.799 280.372 200.091 273.104 198.155 263.88C196.145 253.85 195.172 243.641 195.251 233.412ZM235.019 233.508C235.019 251.908 236.639 264.456 239.879 271.152C243.119 277.848 247.827 281.212 254.003 281.244C255.962 281.266 257.907 280.899 259.724 280.163C261.541 279.428 263.194 278.339 264.587 276.96C267.579 274.104 269.779 269.592 271.187 263.424C272.595 257.256 273.299 247.656 273.299 234.624C273.299 215.472 271.675 202.596 268.427 195.996C265.179 189.396 260.307 186.1 253.811 186.108C247.187 186.108 242.387 189.472 239.411 196.2C236.435 202.928 234.971 215.364 235.019 233.508Z" fill="#D5FF40"/>
<path d="M398.579 279.168H325.559V246.204L398.579 159.396H433.523V248.076H451.691V279.168H433.523V306.144H398.579V279.168ZM398.579 248.076V202.668L359.999 248.076H398.579Z" fill="#D5FF40"/>
<g opacity="0.3">
<path d="M193.693 108.744C193.693 109.188 193.561 109.623 193.314 109.992C193.067 110.361 192.716 110.649 192.305 110.818C191.894 110.988 191.442 111.032 191.007 110.944C190.571 110.856 190.171 110.642 189.858 110.326C189.545 110.011 189.332 109.61 189.247 109.174C189.162 108.738 189.208 108.287 189.379 107.877C189.551 107.467 189.841 107.117 190.211 106.872C190.582 106.627 191.017 106.498 191.461 106.5C191.755 106.5 192.046 106.558 192.318 106.671C192.59 106.784 192.836 106.949 193.044 107.158C193.251 107.367 193.415 107.614 193.527 107.886C193.638 108.158 193.695 108.45 193.693 108.744Z" fill="#D5FF40"/>
<path d="M40.0567 194.94C40.9315 194.94 41.6407 194.231 41.6407 193.356C41.6407 192.481 40.9315 191.772 40.0567 191.772C39.1818 191.772 38.4727 192.481 38.4727 193.356C38.4727 194.231 39.1818 194.94 40.0567 194.94Z" fill="#D5FF40"/>
<path d="M301.752 426.264C303.005 426.264 304.02 425.249 304.02 423.996C304.02 422.743 303.005 421.728 301.752 421.728C300.5 421.728 299.484 422.743 299.484 423.996C299.484 425.249 300.5 426.264 301.752 426.264Z" fill="#D5FF40"/>
<path d="M356.293 333.984C357.168 333.984 357.877 333.275 357.877 332.4C357.877 331.525 357.168 330.816 356.293 330.816C355.418 330.816 354.709 331.525 354.709 332.4C354.709 333.275 355.418 333.984 356.293 333.984Z" fill="#D5FF40"/>
<path d="M461.496 48.7442C461.496 49.0574 461.403 49.3637 461.229 49.6242C461.055 49.8847 460.808 50.0877 460.518 50.2076C460.229 50.3275 459.91 50.3588 459.603 50.2977C459.296 50.2366 459.014 50.0857 458.792 49.8642C458.571 49.6427 458.42 49.3604 458.359 49.0532C458.297 48.7459 458.329 48.4274 458.449 48.138C458.569 47.8485 458.772 47.6012 459.032 47.4271C459.293 47.2531 459.599 47.1602 459.912 47.1602C460.332 47.1602 460.735 47.327 461.032 47.6241C461.329 47.9212 461.496 48.3241 461.496 48.7442Z" fill="#D5FF40"/>
<path d="M159.793 16.8001C159.793 17.1133 159.7 17.4196 159.526 17.6801C159.352 17.9406 159.105 18.1436 158.815 18.2635C158.526 18.3834 158.207 18.4148 157.9 18.3536C157.593 18.2925 157.31 18.1416 157.089 17.9201C156.867 17.6986 156.717 17.4164 156.655 17.1091C156.594 16.8018 156.626 16.4833 156.746 16.1939C156.865 15.9045 157.068 15.6571 157.329 15.483C157.589 15.309 157.896 15.2161 158.209 15.2161C158.628 15.2192 159.029 15.3871 159.326 15.6835C159.622 15.9799 159.79 16.3809 159.793 16.8001Z" fill="#D5FF40"/>
<path d="M285.732 99.9121C286.607 99.9121 287.316 99.203 287.316 98.3281C287.316 97.4533 286.607 96.7441 285.732 96.7441C284.858 96.7441 284.148 97.4533 284.148 98.3281C284.148 99.203 284.858 99.9121 285.732 99.9121Z" fill="#D5FF40"/>
</g>
<path d="M121.968 99.9241C136.488 99.9241 148.26 88.1528 148.26 73.6321C148.26 59.1114 136.488 47.3401 121.968 47.3401C107.447 47.3401 95.6758 59.1114 95.6758 73.6321C95.6758 88.1528 107.447 99.9241 121.968 99.9241Z" fill="#D5FF40"/>
<path opacity="0.7" d="M121.968 99.9241C136.488 99.9241 148.26 88.1528 148.26 73.6321C148.26 59.1114 136.488 47.3401 121.968 47.3401C107.447 47.3401 95.6758 59.1114 95.6758 73.6321C95.6758 88.1528 107.447 99.9241 121.968 99.9241Z" fill="white"/>
<path opacity="0.2" d="M112.909 53.796C109.328 53.785 105.783 54.5079 102.493 55.92C98.4486 60.3647 96.0483 66.06 95.6911 72.0585C95.3339 78.057 97.0413 83.9969 100.529 88.8901C104.017 93.7833 109.075 97.3348 114.862 98.9536C120.649 100.572 126.816 100.161 132.337 97.788C135.759 94.016 138.013 89.3313 138.825 84.3029C139.636 79.2744 138.97 74.1185 136.908 69.4612C134.846 64.804 131.475 60.8456 127.207 58.067C122.938 55.2883 117.954 53.8087 112.861 53.808L112.909 53.796Z" fill="#D5FF40"/>
<path opacity="0.2" d="M110.292 60.744C110.292 61.2187 110.151 61.6827 109.888 62.0774C109.624 62.472 109.249 62.7797 108.811 62.9613C108.372 63.143 107.89 63.1905 107.424 63.0979C106.958 63.0053 106.531 62.7767 106.195 62.441C105.859 62.1054 105.631 61.6778 105.538 61.2122C105.446 60.7466 105.493 60.2641 105.675 59.8255C105.857 59.387 106.164 59.0122 106.559 58.7485C106.953 58.4847 107.418 58.344 107.892 58.344C108.529 58.344 109.139 58.5968 109.589 59.0469C110.039 59.497 110.292 60.1075 110.292 60.744Z" fill="#D5FF40"/>
<path opacity="0.2" d="M138.566 58.3441C138.566 58.8188 138.425 59.2828 138.161 59.6775C137.897 60.0721 137.523 60.3797 137.084 60.5614C136.646 60.743 136.163 60.7906 135.697 60.698C135.232 60.6054 134.804 60.3768 134.469 60.0411C134.133 59.7055 133.904 59.2779 133.812 58.8123C133.719 58.3467 133.767 57.8642 133.948 57.4256C134.13 56.9871 134.438 56.6123 134.832 56.3486C135.227 56.0848 135.691 55.9441 136.166 55.9441C136.802 55.9441 137.413 56.1969 137.863 56.647C138.313 57.0971 138.566 57.7076 138.566 58.3441Z" fill="#D5FF40"/>
<path opacity="0.2" d="M133.765 75.4799C133.765 76.2584 133.534 77.0194 133.101 77.6667C132.669 78.3139 132.054 78.8184 131.335 79.1163C130.616 79.4142 129.824 79.4922 129.061 79.3403C128.297 79.1884 127.596 78.8136 127.045 78.2631C126.495 77.7127 126.12 77.0113 125.968 76.2478C125.816 75.4843 125.894 74.6929 126.192 73.9737C126.49 73.2545 126.995 72.6398 127.642 72.2073C128.289 71.7748 129.05 71.5439 129.829 71.5439C130.872 71.5439 131.874 71.9586 132.612 72.6968C133.35 73.4349 133.765 74.4361 133.765 75.4799Z" fill="#D5FF40"/>
<path opacity="0.2" d="M121.26 86.7001C121.26 87.7396 120.952 88.7558 120.374 89.6202C119.797 90.4845 118.976 91.1582 118.015 91.556C117.055 91.9538 115.998 92.0579 114.979 91.8551C113.959 91.6523 113.023 91.1517 112.287 90.4166C111.552 89.6816 111.052 88.745 110.849 87.7255C110.646 86.7059 110.75 85.6491 111.148 84.6887C111.546 83.7283 112.22 82.9074 113.084 82.3299C113.948 81.7523 114.965 81.4441 116.004 81.4441C117.398 81.4441 118.735 81.9978 119.721 82.9835C120.706 83.9692 121.26 85.3061 121.26 86.7001Z" fill="#D5FF40"/>
<path d="M433.572 390.775C436.5 378.372 428.818 365.943 416.414 363.016C404.01 360.088 391.582 367.77 388.654 380.174C385.727 392.577 393.409 405.006 405.812 407.933C418.216 410.861 430.645 403.179 433.572 390.775Z" fill="#D5FF40"/>
<path opacity="0.3" d="M433.572 390.775C436.5 378.372 428.818 365.943 416.414 363.016C404.01 360.088 391.582 367.77 388.654 380.174C385.727 392.577 393.409 405.006 405.812 407.933C418.216 410.861 430.645 403.179 433.572 390.775Z" fill="white"/>
<path opacity="0.4" d="M425.689 367.608C420.574 366.064 415.081 366.344 410.149 368.401C405.217 370.457 401.152 374.162 398.649 378.883C396.145 383.603 395.359 389.047 396.423 394.283C397.488 399.519 400.337 404.224 404.485 407.592C406.637 408.246 408.873 408.577 411.121 408.576C415.885 408.575 420.532 407.1 424.424 404.352C428.316 401.605 431.262 397.72 432.858 393.232C434.455 388.743 434.622 383.87 433.339 379.283C432.055 374.695 429.383 370.617 425.689 367.608Z" fill="#D5FF40"/>
<path d="M389.088 392.4C364.452 403.992 382.824 412.932 417.54 400.452C449.688 388.896 461.94 374.328 433.14 378.852C434.688 384.912 394.428 400.596 389.088 392.4Z" fill="#D5FF40"/>
<path opacity="0.2" d="M425.411 159.396C393.143 181.2 351.371 210 339.839 279.168H337.379C348.599 210.768 388.847 181.284 421.127 159.396H425.411Z" fill="#0D2825"/>
<path d="M258.492 375.924C238.092 375.924 217.92 366.72 208.092 351.696C202.032 342.408 194.988 322.956 215.964 297L217.824 298.512C202.992 316.872 200.256 335.292 210.108 350.388C222.108 368.748 250.416 377.988 274.584 371.412C299.34 364.68 314.364 343.152 315.816 312.348C320.772 206.976 376.752 174.516 417.624 150.816C443.028 136.092 461.376 125.46 457.344 103.008C456.78 99.9001 455.544 97.7521 453.54 96.4321C448.32 92.9881 438.12 95.3761 426.312 98.1241C403.14 103.524 371.412 110.916 352.512 78.7681L354.588 77.5681C372.588 108.204 402.072 101.328 425.772 95.8081C438.12 92.9401 448.776 90.4561 454.86 94.4521C457.44 96.1441 459.024 98.8201 459.66 102.612C463.992 126.708 444.06 138.276 418.8 152.916C378.396 176.34 323.076 208.416 318.18 312.516C316.668 344.436 300.996 366.768 275.172 373.788C269.731 375.237 264.122 375.955 258.492 375.924Z" fill="#D5FF40"/>
<path opacity="0.2" d="M258.492 375.924C238.092 375.924 217.92 366.72 208.092 351.696C202.032 342.408 194.988 322.956 215.964 297L217.824 298.512C202.992 316.872 200.256 335.292 210.108 350.388C222.108 368.748 250.416 377.988 274.584 371.412C299.34 364.68 314.364 343.152 315.816 312.348C320.772 206.976 376.752 174.516 417.624 150.816C443.028 136.092 461.376 125.46 457.344 103.008C456.78 99.9001 455.544 97.7521 453.54 96.4321C448.32 92.9881 438.12 95.3761 426.312 98.1241C403.14 103.524 371.412 110.916 352.512 78.7681L354.588 77.5681C372.588 108.204 402.072 101.328 425.772 95.8081C438.12 92.9401 448.776 90.4561 454.86 94.4521C457.44 96.1441 459.024 98.8201 459.66 102.612C463.992 126.708 444.06 138.276 418.8 152.916C378.396 176.34 323.076 208.416 318.18 312.516C316.668 344.436 300.996 366.768 275.172 373.788C269.731 375.237 264.122 375.955 258.492 375.924Z" fill="white"/>
<path d="M327.803 50.4001C333.332 50.4321 338.825 51.2936 344.099 52.9561C344.099 52.9561 357.299 75.4801 358.859 80.6401C358.307 85.7281 349.727 94.0681 349.727 94.0681L327.803 50.4001Z" fill="#D5FF40"/>
<path opacity="0.3" d="M327.803 50.4001C333.332 50.4321 338.825 51.2936 344.099 52.9561C344.099 52.9561 357.299 75.4801 358.859 80.6401C358.307 85.7281 349.727 94.0681 349.727 94.0681L327.803 50.4001Z" fill="white"/>
<path d="M366.9 159.756C361.817 153.541 357.181 146.972 353.028 140.1C352.02 138.364 351.064 136.596 350.16 134.796C349.644 133.776 349.152 132.756 348.672 131.724C348.042 130.72 347.554 129.634 347.22 128.496C345.78 113.292 350.988 102.096 346.02 89.8921L326.244 97.6201C326.244 97.6201 327.924 119.364 331.764 132.42C334.164 140.496 339.54 147.48 344.736 153.948C346.356 155.964 347.916 158.04 349.536 160.068C351.156 162.096 352.788 163.74 354.336 165.648C356.676 168.54 357.444 171.312 355.68 174.72L355.38 175.26C354.876 176.148 357.228 177.156 358.716 175.26C361.116 172.164 360.78 172.356 362.868 169.716C364.14 168.12 365.592 166.38 366.852 164.916C367.46 164.196 367.797 163.287 367.806 162.345C367.815 161.403 367.494 160.487 366.9 159.756Z" fill="#D5FF40"/>
<path opacity="0.7" d="M366.9 159.756C361.817 153.541 357.181 146.972 353.028 140.1C352.02 138.364 351.064 136.596 350.16 134.796C349.644 133.776 349.152 132.756 348.672 131.724C348.042 130.72 347.554 129.634 347.22 128.496C345.78 113.292 350.988 102.096 346.02 89.8921L326.244 97.6201C326.244 97.6201 327.924 119.364 331.764 132.42C334.164 140.496 339.54 147.48 344.736 153.948C346.356 155.964 347.916 158.04 349.536 160.068C351.156 162.096 352.788 163.74 354.336 165.648C356.676 168.54 357.444 171.312 355.68 174.72L355.38 175.26C354.876 176.148 357.228 177.156 358.716 175.26C361.116 172.164 360.78 172.356 362.868 169.716C364.14 168.12 365.592 166.38 366.852 164.916C367.46 164.196 367.797 163.287 367.806 162.345C367.815 161.403 367.494 160.487 366.9 159.756Z" fill="white"/>
<path opacity="0.3" d="M362.064 153.504C358.926 156.868 355.443 159.893 351.672 162.528C352.188 163.104 352.692 163.728 353.208 164.28C356.983 161.73 360.412 158.7 363.408 155.268L362.064 153.504Z" fill="#D5FF40"/>
<path opacity="0.3" d="M366.9 159.756L366.756 159.588C365.833 160.647 365.296 161.988 365.232 163.392C365.155 164.355 365.311 165.323 365.688 166.212L366.828 164.856C367.424 164.144 367.756 163.248 367.77 162.319C367.783 161.39 367.476 160.485 366.9 159.756Z" fill="#D5FF40"/>
<path d="M323.099 64.8001C320.955 68.0102 318.383 70.913 315.455 73.4281C313.831 74.8277 312.051 76.0357 310.151 77.0281C309.152 77.5397 308.118 77.9769 307.055 78.3361L306.239 78.6001L305.975 78.6721L305.411 78.8281C305.064 78.9105 304.711 78.9667 304.355 78.9961C303.342 79.0735 302.324 78.9802 301.343 78.7201C300.105 78.3688 298.919 77.8564 297.815 77.1961C296.926 76.6767 296.065 76.112 295.235 75.5041C293.734 74.3881 292.3 73.1861 290.939 71.9041C288.314 69.417 285.905 66.7113 283.739 63.8161C283.322 63.2521 283.114 62.5601 283.153 61.8597C283.191 61.1592 283.473 60.4941 283.95 59.9792C284.426 59.4643 285.068 59.1319 285.763 59.0393C286.458 58.9467 287.164 59.0998 287.759 59.4721H287.855C290.687 61.2721 293.543 63.1681 296.327 64.8601C297.743 65.6881 299.111 66.5281 300.467 67.1761C301.086 67.5002 301.723 67.7887 302.375 68.0401C302.781 68.2194 303.216 68.3251 303.659 68.3521C303.731 68.3521 303.659 68.2681 303.215 68.2801C303.075 68.2717 302.935 68.2717 302.795 68.2801L302.531 68.3401L302.927 68.1361C303.46 67.8492 303.977 67.5327 304.475 67.1881C305.549 66.431 306.553 65.5797 307.475 64.6441C309.571 62.4471 311.535 60.127 313.355 57.6961C314.352 56.5804 315.73 55.8777 317.219 55.7256C318.707 55.5736 320.199 55.9833 321.401 56.8744C322.603 57.7655 323.429 59.0736 323.717 60.5421C324.004 62.0107 323.732 63.5336 322.955 64.8121L323.099 64.8001Z" fill="#D5FF40"/>
<path opacity="0.7" d="M323.099 64.8001C320.955 68.0102 318.383 70.913 315.455 73.4281C313.831 74.8277 312.051 76.0357 310.151 77.0281C309.152 77.5397 308.118 77.9769 307.055 78.3361L306.239 78.6001L305.975 78.6721L305.411 78.8281C305.064 78.9105 304.711 78.9667 304.355 78.9961C303.342 79.0735 302.324 78.9802 301.343 78.7201C300.105 78.3688 298.919 77.8564 297.815 77.1961C296.926 76.6767 296.065 76.112 295.235 75.5041C293.734 74.3881 292.3 73.1861 290.939 71.9041C288.314 69.417 285.905 66.7113 283.739 63.8161C283.322 63.2521 283.114 62.5601 283.153 61.8597C283.191 61.1592 283.473 60.4941 283.95 59.9792C284.426 59.4643 285.068 59.1319 285.763 59.0393C286.458 58.9467 287.164 59.0998 287.759 59.4721H287.855C290.687 61.2721 293.543 63.1681 296.327 64.8601C297.743 65.6881 299.111 66.5281 300.467 67.1761C301.086 67.5002 301.723 67.7887 302.375 68.0401C302.781 68.2194 303.216 68.3251 303.659 68.3521C303.731 68.3521 303.659 68.2681 303.215 68.2801C303.075 68.2717 302.935 68.2717 302.795 68.2801L302.531 68.3401L302.927 68.1361C303.46 67.8492 303.977 67.5327 304.475 67.1881C305.549 66.431 306.553 65.5797 307.475 64.6441C309.571 62.4471 311.535 60.127 313.355 57.6961C314.352 56.5804 315.73 55.8777 317.219 55.7256C318.707 55.5736 320.199 55.9833 321.401 56.8744C322.603 57.7655 323.429 59.0736 323.717 60.5421C324.004 62.0107 323.732 63.5336 322.955 64.8121L323.099 64.8001Z" fill="white"/>
<path d="M279.24 56.904L280.644 59.304C280.644 59.304 281.712 62.448 283.86 63.024L289.692 61.14L289.392 60.648C288.648 59.52 288.732 57.324 288.984 55.5C289.236 53.676 288.3 53.616 287.604 54.072C287.11 54.6394 286.764 55.3194 286.596 56.052C286.309 55.6558 285.992 55.2826 285.648 54.936L283.872 53.16C283.499 52.7959 283.002 52.5861 282.482 52.5727C281.961 52.5593 281.454 52.7434 281.064 53.088L279.623 54.372C279.282 54.688 279.058 55.1107 278.988 55.5708C278.918 56.0309 279.007 56.501 279.24 56.904Z" fill="#D5FF40"/>
<path opacity="0.7" d="M279.24 56.904L280.644 59.304C280.644 59.304 281.712 62.448 283.86 63.024L289.692 61.14L289.392 60.648C288.648 59.52 288.732 57.324 288.984 55.5C289.236 53.676 288.3 53.616 287.604 54.072C287.11 54.6394 286.764 55.3194 286.596 56.052C286.309 55.6558 285.992 55.2826 285.648 54.936L283.872 53.16C283.499 52.7959 283.002 52.5861 282.482 52.5727C281.961 52.5593 281.454 52.7434 281.064 53.088L279.623 54.372C279.282 54.688 279.058 55.1107 278.988 55.5708C278.918 56.0309 279.007 56.501 279.24 56.904Z" fill="white"/>
<path d="M333.695 48.2641C327.226 49.9788 321.03 52.5922 315.287 56.0281C314.391 56.5889 313.688 57.4101 313.272 58.3816C312.856 59.3532 312.747 60.4288 312.959 61.4641C315.275 72.7921 320.543 87.9601 326.231 97.6201L352.763 86.6401C352.943 81.9601 346.499 66.8161 339.935 52.1761C338.759 49.5481 336.491 47.5921 333.695 48.2641Z" fill="#D5FF40"/>
<path opacity="0.8" d="M333.695 48.2641C327.226 49.9788 321.03 52.5922 315.287 56.0281C314.391 56.5889 313.688 57.4101 313.272 58.3816C312.856 59.3532 312.747 60.4288 312.959 61.4641C315.275 72.7921 320.543 87.9601 326.231 97.6201L352.763 86.6401C352.943 81.9601 346.499 66.8161 339.935 52.1761C338.759 49.5481 336.491 47.5921 333.695 48.2641Z" fill="white"/>
<path opacity="0.3" d="M344.051 61.452L338.783 59.688C339.983 62.772 344.219 66.672 347.183 68.964C346.223 66.564 345.155 64.044 344.051 61.452Z" fill="#D5FF40"/>
<path d="M331.955 36.3841C329.759 32.2081 325.019 30.1081 319.331 30.5761C314.531 30.9841 310.283 35.8801 310.787 38.5201C311.291 41.1601 315.323 42.2881 316.091 43.2001L312.767 45.6001C312.373 45.8843 312.041 46.2452 311.79 46.6612C311.54 47.0771 311.376 47.5395 311.309 48.0204C311.241 48.5014 311.272 48.991 311.399 49.4597C311.526 49.9285 311.746 50.3667 312.047 50.7481C313.451 52.5241 315.299 54.3481 316.367 55.6921C325.559 55.4521 332.363 51.9481 334.823 48.5761C333.899 44.3041 334.091 40.5361 331.955 36.3841Z" fill="#D5FF40"/>
<path opacity="0.8" d="M331.955 36.3841C329.759 32.2081 325.019 30.1081 319.331 30.5761C314.531 30.9841 310.283 35.8801 310.787 38.5201C311.291 41.1601 315.323 42.2881 316.091 43.2001L312.767 45.6001C312.373 45.8843 312.041 46.2452 311.79 46.6612C311.54 47.0771 311.376 47.5395 311.309 48.0204C311.241 48.5014 311.272 48.991 311.399 49.4597C311.526 49.9285 311.746 50.3667 312.047 50.7481C313.451 52.5241 315.299 54.3481 316.367 55.6921C325.559 55.4521 332.363 51.9481 334.823 48.5761C333.899 44.3041 334.091 40.5361 331.955 36.3841Z" fill="white"/>
<path d="M327.444 38.976C328.096 40.6495 328.238 42.4789 327.851 44.233C327.464 45.9871 326.566 47.5871 325.27 48.8307C323.974 50.0743 322.338 50.9058 320.569 51.22C318.801 51.5342 316.979 51.317 315.334 50.5959C313.689 49.8747 312.294 48.6821 311.327 47.1686C310.359 45.6552 309.862 43.8888 309.898 42.093C309.935 40.2971 310.502 38.5522 311.53 37.079C312.558 35.6057 313.999 34.4702 315.672 33.816C317.917 32.9412 320.418 32.9933 322.625 33.9607C324.832 34.9282 326.565 36.7319 327.444 38.976Z" fill="#0D2825"/>
<path d="M405.359 147.12C405.227 143.172 405.047 143.52 404.939 140.196C404.867 138.156 404.855 135.888 404.843 133.932C404.839 133.003 404.515 132.104 403.924 131.387C403.334 130.67 402.514 130.179 401.603 129.996C400.019 129.672 398.423 129.372 396.803 129.036C394.727 128.592 392.675 128.112 390.647 127.524C389.063 127.068 387.503 126.564 385.955 126C384.407 125.436 382.667 124.8 381.059 124.056C379.163 123.252 377.291 122.388 375.443 121.488C373.367 120.504 371.315 119.472 369.263 118.428C361.367 105.36 361.199 96.7441 352.727 86.6401L334.535 94.8721C334.535 94.8721 347.903 118.584 356.999 128.64C362.243 134.424 370.463 137.04 377.795 138.936C383.087 140.292 388.451 141.336 393.815 142.332C395.903 142.716 398.171 142.86 399.971 144.108C401.303 145.129 402.216 146.601 402.539 148.248C402.619 148.584 402.691 148.92 402.755 149.256C402.983 150.264 405.443 149.496 405.359 147.12Z" fill="#D5FF40"/>
<path opacity="0.8" d="M405.359 147.12C405.227 143.172 405.047 143.52 404.939 140.196C404.867 138.156 404.855 135.888 404.843 133.932C404.839 133.003 404.515 132.104 403.924 131.387C403.334 130.67 402.514 130.179 401.603 129.996C400.019 129.672 398.423 129.372 396.803 129.036C394.727 128.592 392.675 128.112 390.647 127.524C389.063 127.068 387.503 126.564 385.955 126C384.407 125.436 382.667 124.8 381.059 124.056C379.163 123.252 377.291 122.388 375.443 121.488C373.367 120.504 371.315 119.472 369.263 118.428C361.367 105.36 361.199 96.7441 352.727 86.6401L334.535 94.8721C334.535 94.8721 347.903 118.584 356.999 128.64C362.243 134.424 370.463 137.04 377.795 138.936C383.087 140.292 388.451 141.336 393.815 142.332C395.903 142.716 398.171 142.86 399.971 144.108C401.303 145.129 402.216 146.601 402.539 148.248C402.619 148.584 402.691 148.92 402.755 149.256C402.983 150.264 405.443 149.496 405.359 147.12Z" fill="white"/>
<path opacity="0.3" d="M396.131 128.88C395.411 128.724 394.691 128.568 393.959 128.388C394.019 132.54 392.075 139.692 391.367 141.864L393.647 142.296C395.141 137.974 395.979 133.451 396.131 128.88Z" fill="#D5FF40"/>
<path opacity="0.3" d="M404.891 133.932C404.887 133.005 404.565 132.107 403.977 131.39C403.389 130.673 402.571 130.181 401.663 129.996L400.463 129.768C400.656 131.132 401.354 132.374 402.419 133.248C403.104 133.881 403.925 134.349 404.819 134.616C404.891 134.4 404.891 134.16 404.891 133.932Z" fill="#D5FF40"/>
<path d="M325.752 39.048C326.232 40.872 324.192 42.78 322.572 41.208C321.06 39.5869 319.405 38.1049 317.628 36.78C315.96 35.736 318.18 33.912 320.808 34.62C321.929 34.9017 322.965 35.452 323.827 36.2235C324.688 36.9949 325.349 37.9643 325.752 39.048Z" fill="white"/>
<path d="M325.884 97.0321C325.044 97.3441 326.58 98.7841 326.58 98.7841C326.58 98.7841 343.38 93.0361 353.58 87.1201C353.605 86.762 353.543 86.4031 353.402 86.0733C353.26 85.7436 353.041 85.4524 352.764 85.2241C344.034 89.6648 335.06 93.6071 325.884 97.0321Z" fill="#D5FF40"/>
<path opacity="0.5" d="M325.884 97.0321C325.044 97.3441 326.58 98.7841 326.58 98.7841C326.58 98.7841 343.38 93.0361 353.58 87.1201C353.605 86.762 353.543 86.4031 353.402 86.0733C353.26 85.7436 353.041 85.4524 352.764 85.2241C344.034 89.6648 335.06 93.6071 325.884 97.0321Z" fill="white"/>
<path d="M338.243 47.472C341.555 49.152 344.663 50.916 347.843 52.872C349.391 53.856 350.927 54.852 352.451 55.932C353.975 57.012 355.487 58.116 357.011 59.364L357.575 59.832L358.283 60.48C358.705 60.8574 359.106 61.258 359.483 61.68C359.867 62.1 360.191 62.508 360.503 62.88C360.815 63.252 361.151 63.696 361.427 64.08C362.546 65.6227 363.579 67.225 364.523 68.88C366.383 72.0892 367.988 75.4395 369.323 78.9C369.57 79.5538 369.583 80.2729 369.359 80.9351C369.136 81.5972 368.69 82.1615 368.097 82.5321C367.505 82.9026 366.802 83.0564 366.109 82.9674C365.416 82.8785 364.775 82.5521 364.295 82.044L364.235 81.972C361.835 79.416 359.519 76.728 357.191 74.22C354.863 71.712 352.499 69.168 350.543 68.052C347.819 66.36 344.783 64.668 341.771 63.012L332.699 57.972C331.293 57.2272 330.239 55.9542 329.771 54.4329C329.303 52.9116 329.459 51.2667 330.203 49.86C330.948 48.4533 332.221 47.4 333.742 46.9319C335.264 46.4638 336.909 46.6192 338.315 47.364L338.243 47.472Z" fill="#D5FF40"/>
<path opacity="0.8" d="M338.243 47.472C341.555 49.152 344.663 50.916 347.843 52.872C349.391 53.856 350.927 54.852 352.451 55.932C353.975 57.012 355.487 58.116 357.011 59.364L357.575 59.832L358.283 60.48C358.705 60.8574 359.106 61.258 359.483 61.68C359.867 62.1 360.191 62.508 360.503 62.88C360.815 63.252 361.151 63.696 361.427 64.08C362.546 65.6227 363.579 67.225 364.523 68.88C366.383 72.0892 367.988 75.4395 369.323 78.9C369.57 79.5538 369.583 80.2729 369.359 80.9351C369.136 81.5972 368.69 82.1615 368.097 82.5321C367.505 82.9026 366.802 83.0564 366.109 82.9674C365.416 82.8785 364.775 82.5521 364.295 82.044L364.235 81.972C361.835 79.416 359.519 76.728 357.191 74.22C354.863 71.712 352.499 69.168 350.543 68.052C347.819 66.36 344.783 64.668 341.771 63.012L332.699 57.972C331.293 57.2272 330.239 55.9542 329.771 54.4329C329.303 52.9116 329.459 51.2667 330.203 49.86C330.948 48.4533 332.221 47.4 333.742 46.9319C335.264 46.4638 336.909 46.6192 338.315 47.364L338.243 47.472Z" fill="white"/>
<path d="M372.168 84.888L371.148 82.332C371.148 82.332 370.584 79.068 368.556 78.156L362.556 79.104L362.76 79.632C363.312 80.832 362.892 83.028 362.352 84.78C361.812 86.532 362.724 86.76 363.492 86.412C363.924 86.22 364.344 85.44 364.8 84.612C365.024 85.0291 365.277 85.4301 365.556 85.812L367.032 87.84C367.341 88.2603 367.797 88.5483 368.309 88.6462C368.821 88.7442 369.351 88.6448 369.792 88.368L371.424 87.324C371.806 87.0626 372.088 86.6791 372.223 86.2364C372.358 85.7937 372.339 85.3182 372.168 84.888Z" fill="#D5FF40"/>
<path opacity="0.8" d="M372.168 84.888L371.148 82.332C371.148 82.332 370.584 79.068 368.556 78.156L362.556 79.104L362.76 79.632C363.312 80.832 362.892 83.028 362.352 84.78C361.812 86.532 362.724 86.76 363.492 86.412C363.924 86.22 364.344 85.44 364.8 84.612C365.024 85.0291 365.277 85.4301 365.556 85.812L367.032 87.84C367.341 88.2603 367.797 88.5483 368.309 88.6462C368.821 88.7442 369.351 88.6448 369.792 88.368L371.424 87.324C371.806 87.0626 372.088 86.6791 372.223 86.2364C372.358 85.7937 372.339 85.3182 372.168 84.888Z" fill="white"/>
<path opacity="0.3" d="M333.181 61.272L331.717 61.392L322.729 83.088C323.22 83.1233 323.714 83.0829 324.193 82.968C324.193 82.968 335.905 78.6 339.445 76.968C337.069 72.06 333.181 61.272 333.181 61.272Z" fill="#D5FF40"/>
<path d="M316.775 66.9601C317.867 72.6315 319.895 78.0819 322.775 83.0881C327.167 81.5761 334.487 78.7201 338.039 77.0881C335.652 71.97 333.533 66.7309 331.691 61.3921C327.935 61.6441 319.691 64.8001 316.775 66.9601Z" fill="white"/>
<path opacity="0.3" d="M325.691 71.652C325.516 72.2388 325.17 72.7604 324.698 73.1508C324.226 73.5412 323.649 73.7828 323.04 73.8451C322.431 73.9074 321.816 73.7876 321.275 73.5008C320.734 73.2141 320.29 72.7732 320 72.234C319.709 71.6948 319.585 71.0816 319.643 70.4719C319.701 69.8621 319.938 69.2833 320.326 68.8086C320.713 68.334 321.232 67.9848 321.817 67.8052C322.403 67.6257 323.029 67.6238 323.615 67.8C324.401 68.0359 325.061 68.5741 325.45 69.2964C325.84 70.0186 325.926 70.8659 325.691 71.652Z" fill="#D5FF40"/>
<path opacity="0.6" d="M327.984 67.5241C327.937 67.7244 327.831 67.9059 327.679 68.0448C327.527 68.1836 327.337 68.2733 327.134 68.3022C326.93 68.331 326.722 68.2975 326.538 68.2062C326.354 68.115 326.201 67.9701 326.101 67.7906C326 67.6111 325.956 67.4055 325.975 67.2006C325.993 66.9957 326.073 66.8012 326.204 66.6427C326.335 66.4841 326.511 66.3688 326.709 66.3119C326.907 66.2551 327.117 66.2593 327.312 66.3241C327.555 66.4019 327.76 66.569 327.884 66.7917C328.009 67.0145 328.045 67.2762 327.984 67.5241Z" fill="#D5FF40"/>
<path opacity="0.6" d="M330.672 66.48C330.644 66.6192 330.587 66.751 330.505 66.8669C330.423 66.9828 330.318 67.0803 330.196 67.1532C330.074 67.2261 329.938 67.2727 329.797 67.29C329.656 67.3074 329.513 67.2951 329.377 67.254C329.241 67.2129 329.115 67.1438 329.008 67.0512C328.9 66.9587 328.813 66.8446 328.752 66.7164C328.69 66.5882 328.657 66.4486 328.653 66.3067C328.649 66.1647 328.674 66.0235 328.728 65.892C328.766 65.765 328.83 65.6468 328.914 65.5443C328.998 65.4417 329.101 65.3568 329.219 65.2944C329.336 65.2319 329.464 65.1932 329.596 65.1805C329.728 65.1677 329.861 65.1811 329.988 65.22C330.245 65.2978 330.461 65.4737 330.589 65.7095C330.717 65.9454 330.747 66.2222 330.672 66.48Z" fill="#D5FF40"/>
<path opacity="0.5" d="M334.44 75.828L323.34 80.208L322.68 78.024L333.768 73.644L334.44 75.828Z" fill="#D5FF40"/>
<path opacity="0.2" d="M273.203 242.604C273.177 249.591 272.502 256.561 271.187 263.424C269.771 269.592 267.571 274.104 264.587 276.96C263.197 278.34 261.547 279.429 259.731 280.165C257.916 280.9 255.973 281.267 254.015 281.244C247.847 281.244 243.139 277.88 239.891 271.152C239.32 269.944 238.835 268.696 238.439 267.42C231.579 273.311 225.192 279.731 219.335 286.62L212.963 294.132C216.392 297.608 220.349 300.52 224.687 302.76C232.159 306.624 241.967 308.56 254.111 308.568C256.247 308.568 258.311 308.508 260.315 308.388C267.662 297.517 273.741 285.841 278.435 273.588L296.255 227.124L273.203 242.604Z" fill="#0D2825"/>
<path d="M112.561 306L133.561 327L192.361 271.596C172.093 263.856 132.685 285.828 112.561 306Z" fill="#0D2825"/>
<path d="M185.795 379.2C179.087 372.48 164.795 358.2 164.795 358.2L220.199 299.4C227.891 319.62 205.919 359.064 185.795 379.2Z" fill="#0D2825"/>
<path d="M266.172 246.84L289.08 202.668L244.908 225.6C230.719 232.958 217.619 242.247 205.98 253.2L130.68 324.084L167.676 361.08L238.56 285.78C249.518 274.138 258.811 261.033 266.172 246.84Z" fill="#D5FF40"/>
<path opacity="0.6" d="M266.172 246.84L289.08 202.668L244.908 225.6C230.719 232.958 217.619 242.247 205.98 253.2L130.68 324.084L167.676 361.08L238.56 285.78C249.518 274.138 258.811 261.033 266.172 246.84Z" fill="white"/>
<path d="M219.132 288.096C227.682 288.096 234.612 281.165 234.612 272.616C234.612 264.067 227.682 257.136 219.132 257.136C210.583 257.136 203.652 264.067 203.652 272.616C203.652 281.165 210.583 288.096 219.132 288.096Z" fill="white"/>
<path d="M219.132 282.564C224.626 282.564 229.08 278.11 229.08 272.616C229.08 267.122 224.626 262.668 219.132 262.668C213.637 262.668 209.184 267.122 209.184 272.616C209.184 278.11 213.637 282.564 219.132 282.564Z" fill="#D5FF40"/>
<path opacity="0.3" d="M180.191 347.784L143.963 311.556L173.627 283.644L208.103 318.132L180.191 347.784Z" fill="#D5FF40"/>
<path d="M120.756 339.144C93.6358 341.34 84.6478 358.704 81.5758 381.78C80.0158 393.552 79.3198 405.468 69.4438 412.356C68.8497 412.76 68.4024 413.345 68.1688 414.024C67.9353 414.704 67.9281 415.441 68.1484 416.124C68.3687 416.808 68.8045 417.402 69.3907 417.817C69.9768 418.233 70.6817 418.447 71.3998 418.428C107.808 417.288 124.788 399.468 126.924 392.028C126.363 395.917 125.361 399.73 123.936 403.392C123.674 404.038 123.623 404.751 123.789 405.428C123.956 406.105 124.332 406.712 124.864 407.163C125.396 407.613 126.057 407.885 126.752 407.938C127.447 407.992 128.141 407.824 128.736 407.46C138.948 401.064 151.764 389.28 152.616 370.164C145.104 359.52 120.756 339.144 120.756 339.144Z" fill="#D5FF40"/>
<path opacity="0.2" d="M120.756 339.144C93.6358 341.34 84.6478 358.704 81.5758 381.78C80.0158 393.552 79.3198 405.468 69.4438 412.356C68.8497 412.76 68.4024 413.345 68.1688 414.024C67.9353 414.704 67.9281 415.441 68.1484 416.124C68.3687 416.808 68.8045 417.402 69.3907 417.817C69.9768 418.233 70.6817 418.447 71.3998 418.428C107.808 417.288 124.788 399.468 126.924 392.028C126.363 395.917 125.361 399.73 123.936 403.392C123.674 404.038 123.623 404.751 123.789 405.428C123.956 406.105 124.332 406.712 124.864 407.163C125.396 407.613 126.057 407.885 126.752 407.938C127.447 407.992 128.141 407.824 128.736 407.46C138.948 401.064 151.764 389.28 152.616 370.164C145.104 359.52 120.756 339.144 120.756 339.144Z" fill="white"/>
<path d="M156.829 378.36L113.389 334.92L136.525 329.916L161.833 355.224L156.829 378.36Z" fill="#D5FF40"/>
</svg>
