<svg width="499" height="499" viewBox="0 0 499 499" fill="none" xmlns="http://www.w3.org/2000/svg">
<path fill-rule="evenodd" clip-rule="evenodd" d="M31.0428 27.5281C60.8715 -1.82815 112.217 -4.66455 172.039 15.8079C196.592 24.2105 222.433 36.5017 248.568 52.3504C211.83 74.2683 174.548 102.97 139.365 137.596C104.183 172.221 74.8909 209.039 52.3897 245.422C36.9603 219.037 25.0833 193.003 17.0736 168.319C-2.44138 108.178 1.21419 56.8844 31.0428 27.5281ZM50.8568 247.916C-2.95736 156.487 -14.5814 68.8036 29.2299 25.6861C73.0411 -17.4316 160.527 -4.40937 251.087 50.8576C342.516 -2.95492 430.197 -14.5781 473.314 29.2326C516.431 73.0434 503.41 160.528 448.144 251.087C501.957 342.515 513.58 430.197 469.77 473.314C425.958 516.431 338.474 503.41 247.916 448.145C156.486 501.959 68.8034 513.584 25.686 469.772C-17.4314 425.961 -4.40951 338.475 50.8568 247.916ZM245.421 446.612C219.037 462.042 193.003 473.919 168.319 481.928C108.178 501.444 56.8844 497.788 27.5281 467.959C-1.82817 438.13 -4.66458 386.785 15.8078 326.963C24.2104 302.411 36.5014 276.57 52.3496 250.435C74.2674 287.172 102.968 324.453 137.593 359.635C172.218 394.818 209.038 424.11 245.421 446.612ZM247.94 445.129C211.379 422.657 174.305 393.253 139.435 357.822C104.565 322.392 75.7583 284.854 53.8729 247.94C76.3442 211.38 105.748 174.307 141.178 139.437C176.609 104.568 214.148 75.7592 251.063 53.8737C287.623 76.3451 324.695 105.748 359.564 141.178C394.435 176.609 423.242 214.148 445.128 251.063C422.657 287.624 393.253 324.698 357.822 359.567C322.392 394.436 284.855 423.244 247.94 445.129ZM250.435 446.652C276.569 462.5 302.409 474.79 326.961 483.192C386.782 503.664 438.127 500.828 467.957 471.472C497.785 442.116 501.441 390.822 481.926 330.681C473.916 305.998 462.039 279.965 446.611 253.582C424.11 289.965 394.817 326.784 359.635 361.409C324.453 396.034 287.172 424.734 250.435 446.652ZM446.651 248.568C462.499 222.434 474.79 196.593 483.192 172.042C503.664 112.22 500.828 60.8742 471.472 31.0455C442.115 1.2169 390.821 -2.43866 330.681 17.0763C305.998 25.0857 279.966 36.9621 253.582 52.3904C289.964 74.8919 326.782 104.183 361.407 139.365C396.032 174.548 424.733 211.83 446.651 248.568Z" fill="white"/>
</svg>
