<svg width="322" height="302" viewBox="0 0 322 302" fill="none" xmlns="http://www.w3.org/2000/svg">
<path d="M258.576 220.921L271.303 208.67L258.576 220.921Z" fill="white"/>
<path d="M258.576 220.921L271.303 208.67" stroke="white" stroke-width="2" stroke-miterlimit="10" stroke-linecap="round" stroke-linejoin="round"/>
<path d="M215.546 263.352L238.879 240.643L215.546 263.352Z" fill="white"/>
<path d="M215.546 263.352L238.879 240.643" stroke="white" stroke-width="2" stroke-miterlimit="10" stroke-linecap="round" stroke-linejoin="round"/>
<path d="M218.576 225.103L305.243 139.346L218.576 225.103Z" fill="white"/>
<path d="M218.576 225.103L305.243 139.346" stroke="white" stroke-width="2" stroke-miterlimit="10" stroke-linecap="round" stroke-linejoin="round"/>
<path d="M174.335 268.729L191.911 251.1L174.335 268.729Z" fill="white"/>
<path d="M174.335 268.729L191.911 251.1" stroke="white" stroke-width="2" stroke-miterlimit="10" stroke-linecap="round" stroke-linejoin="round"/>
<path d="M244.637 163.55L321.001 88.251L244.637 163.55Z" fill="white"/>
<path d="M244.637 163.55L321.001 88.251" stroke="white" stroke-width="2" stroke-miterlimit="10" stroke-linecap="round" stroke-linejoin="round"/>
<path d="M244.637 163.55L321.001 88.251L244.637 163.55Z" fill="white"/>
<path d="M244.637 163.55L321.001 88.251" stroke="white" stroke-width="2" stroke-miterlimit="10" stroke-linecap="round" stroke-linejoin="round"/>
<path d="M129.485 277.095L210.697 196.717L129.485 277.095Z" fill="white"/>
<path d="M129.485 277.095L210.697 196.717" stroke="white" stroke-width="2" stroke-miterlimit="10" stroke-linecap="round" stroke-linejoin="round"/>
<path d="M129.485 277.095L210.697 196.717L129.485 277.095Z" fill="white"/>
<path d="M129.485 277.095L210.697 196.717" stroke="white" stroke-width="2" stroke-miterlimit="10" stroke-linecap="round" stroke-linejoin="round"/>
<path d="M157.062 214.049L291.607 81.3795L157.062 214.049Z" fill="white"/>
<path d="M157.062 214.049L291.607 81.3795" stroke="white" stroke-width="2" stroke-miterlimit="10" stroke-linecap="round" stroke-linejoin="round"/>
<path d="M101.305 269.027L129.79 240.939L101.305 269.027Z" fill="white"/>
<path d="M101.305 269.027L129.79 240.939" stroke="white" stroke-width="2" stroke-miterlimit="10" stroke-linecap="round" stroke-linejoin="round"/>
<path d="M231.911 104.387L264.335 72.7136L231.911 104.387Z" fill="white"/>
<path d="M231.911 104.387L264.335 72.7136" stroke="white" stroke-width="2" stroke-miterlimit="10" stroke-linecap="round" stroke-linejoin="round"/>
<path d="M32.8193 301L197.971 138.151L32.8193 301Z" fill="white"/>
<path d="M32.8193 301L197.971 138.151" stroke="white" stroke-width="2" stroke-miterlimit="10" stroke-linecap="round" stroke-linejoin="round"/>
<path d="M128.881 170.422L290.396 11.159L128.881 170.422Z" fill="white"/>
<path d="M128.881 170.422L290.396 11.159" stroke="white" stroke-width="2" stroke-miterlimit="10" stroke-linecap="round" stroke-linejoin="round"/>
<path d="M128.881 170.422L290.396 11.159L128.881 170.422Z" fill="white"/>
<path d="M128.881 170.422L290.396 11.159" stroke="white" stroke-width="2" stroke-miterlimit="10" stroke-linecap="round" stroke-linejoin="round"/>
<path d="M57.668 240.641L95.2437 203.589L57.668 240.641Z" fill="white"/>
<path d="M57.668 240.641L95.2437 203.589" stroke="white" stroke-width="2" stroke-miterlimit="10" stroke-linecap="round" stroke-linejoin="round"/>
<path d="M57.668 240.641L95.2437 203.589L57.668 240.641Z" fill="white"/>
<path d="M57.668 240.641L95.2437 203.589" stroke="white" stroke-width="2" stroke-miterlimit="10" stroke-linecap="round" stroke-linejoin="round"/>
<path d="M124.031 139.348L228.274 36.5591L124.031 139.348Z" fill="white"/>
<path d="M124.031 139.348L228.274 36.5591" stroke="white" stroke-width="2" stroke-miterlimit="10" stroke-linecap="round" stroke-linejoin="round"/>
<path d="M17.668 244.227L94.6376 168.33L17.668 244.227Z" fill="white"/>
<path d="M17.668 244.227L94.6376 168.33" stroke="white" stroke-width="2" stroke-miterlimit="10" stroke-linecap="round" stroke-linejoin="round"/>
<path d="M173.729 54.7837L228.274 1.00003L173.729 54.7837Z" fill="white"/>
<path d="M173.729 54.7837L228.274 1.00003" stroke="white" stroke-width="2" stroke-miterlimit="10" stroke-linecap="round" stroke-linejoin="round"/>
<path d="M173.729 54.7837L228.274 1.00003L173.729 54.7837Z" fill="white"/>
<path d="M173.729 54.7837L228.274 1.00003" stroke="white" stroke-width="2" stroke-miterlimit="10" stroke-linecap="round" stroke-linejoin="round"/>
<path d="M28.5752 197.912L134.03 93.6295L28.5752 197.912Z" fill="white"/>
<path d="M28.5752 197.912L134.03 93.6295" stroke="white" stroke-width="2" stroke-miterlimit="10" stroke-linecap="round" stroke-linejoin="round"/>
<path d="M28.5752 197.912L134.03 93.6295L28.5752 197.912Z" fill="white"/>
<path d="M28.5752 197.912L134.03 93.6295" stroke="white" stroke-width="2" stroke-miterlimit="10" stroke-linecap="round" stroke-linejoin="round"/>
<path d="M84.6357 106.777L158.272 34.1673L84.6357 106.777Z" fill="white"/>
<path d="M84.6357 106.777L158.272 34.1673" stroke="white" stroke-width="2" stroke-miterlimit="10" stroke-linecap="round" stroke-linejoin="round"/>
<path d="M1.00098 189.246L55.8494 135.162L1.00098 189.246Z" fill="white"/>
<path d="M1.00098 189.246L55.8494 135.162" stroke="white" stroke-width="2" stroke-miterlimit="10" stroke-linecap="round" stroke-linejoin="round"/>
<path d="M113.729 42.2361L142.517 14.1484L113.729 42.2361Z" fill="white"/>
<path d="M113.729 42.2361L142.517 14.1484" stroke="white" stroke-width="2" stroke-miterlimit="10" stroke-linecap="round" stroke-linejoin="round"/>
<path d="M113.729 42.2361L142.517 14.1484L113.729 42.2361Z" fill="white"/>
<path d="M113.729 42.2361L142.517 14.1484" stroke="white" stroke-width="2" stroke-miterlimit="10" stroke-linecap="round" stroke-linejoin="round"/>
<path d="M8.57715 145.919L81.3044 74.5046L8.57715 145.919Z" fill="white"/>
<path d="M8.57715 145.919L81.3044 74.5046" stroke="white" stroke-width="2" stroke-miterlimit="10" stroke-linecap="round" stroke-linejoin="round"/>
<path d="M8.57715 145.919L81.3044 74.5046L8.57715 145.919Z" fill="white"/>
<path d="M8.57715 145.919L81.3044 74.5046" stroke="white" stroke-width="2" stroke-miterlimit="10" stroke-linecap="round" stroke-linejoin="round"/>
<path d="M62.8203 56.8757L80.3961 39.5451L62.8203 56.8757Z" fill="white"/>
<path d="M62.8203 56.8757L80.3961 39.5451" stroke="white" stroke-width="2" stroke-miterlimit="10" stroke-linecap="round" stroke-linejoin="round"/>
<path d="M31.9111 87.3545L44.0323 75.4023L31.9111 87.3545Z" fill="white"/>
<path d="M31.9111 87.3545L44.0323 75.4023" stroke="white" stroke-width="2" stroke-miterlimit="10" stroke-linecap="round" stroke-linejoin="round"/>
</svg>
