<?xml version="1.0" encoding="utf-8"?>
<svg width="80" height="80" viewBox="0 0 80 80" fill="none" xmlns="http://www.w3.org/2000/svg">
  <path d="M41.9344 0H38.0659V80H41.9344V0Z" fill="#D5FF40"/>
  <path d="M41.9344 0H38.0659V80H41.9344V0Z" fill="#D5FF40"/>
  <path d="M80 38.0664H0V41.9349H80V38.0664Z" fill="#D5FF40"/>
  <path d="M80 38.0664H0V41.9349H80V38.0664Z" fill="#D5FF40"/>
  <path d="M13.0767 10.3457L10.3413 13.0811L66.9095 69.6492L69.6447 66.9134L13.0767 10.3457Z" fill="#D5FF40"/>
  <path d="M13.0767 10.3457L10.3413 13.0811L66.9095 69.6492L69.6447 66.9134L13.0767 10.3457Z" fill="#D5FF40"/>
  <path d="M66.9095 10.3438L10.3413 66.9117L13.0767 69.6469L69.6447 13.0792L66.9095 10.3438Z" fill="#D5FF40"/>
  <path d="M66.9095 10.3438L10.3413 66.9117L13.0767 69.6469L69.6447 13.0792L66.9095 10.3438Z" fill="#D5FF40"/>
  <path d="M3.69737 23.1289L2.23779 26.7115L76.3258 56.8958L77.7854 53.3129L3.69737 23.1289Z" fill="#D5FF40"/>
  <path d="M3.69737 23.1289L2.23779 26.7115L76.3258 56.8958L77.7854 53.3129L3.69737 23.1289Z" fill="#D5FF40"/>
  <path d="M53.3134 2.24219L23.1294 76.3301L26.712 77.7896L56.8959 3.70176L53.3134 2.24219Z" fill="#D5FF40"/>
  <path d="M53.3134 2.24219L23.1294 76.3301L26.712 77.7896L56.8959 3.70176L53.3134 2.24219Z" fill="#D5FF40"/>
  <path d="M76.4143 23.2637L2.19824 53.1357L3.64273 56.7245L77.8586 26.8525L76.4143 23.2637Z" fill="#D5FF40"/>
  <path d="M76.4143 23.2637L2.19824 53.1357L3.64273 56.7245L77.8586 26.8525L76.4143 23.2637Z" fill="#D5FF40"/>
  <path d="M26.8359 2.19922L23.2471 3.64332L53.111 77.8592L56.6997 76.4154L26.8359 2.19922Z" fill="#D5FF40"/>
  <path d="M26.8359 2.19922L23.2471 3.64332L53.111 77.8592L56.6997 76.4154L26.8359 2.19922Z" fill="#D5FF40"/>
</svg>