<svg width="88" height="69" viewBox="0 0 88 69" fill="none" xmlns="http://www.w3.org/2000/svg">
<path d="M1.79009 45.8559C9.26837 33.5026 17.5891 23.1206 28.8397 14.145C35.1297 9.12704 42.4126 3.64135 50.452 1.86936C63.0022 -0.896868 53.8584 12.9038 50.8322 17.7037C43.9172 28.6723 37.3584 39.8119 30.6649 50.9159C29.3513 53.095 25.4589 59.6535 26.6219 57.3897C29.3496 52.0804 33.578 47.0422 37.476 42.5875C48.2939 30.2251 62.513 16.8715 77.4966 9.75576C82.5125 7.37373 85.7795 7.71798 82.8501 14.1314C74.9085 31.5187 62.4734 46.647 53.4267 63.4693C51.4042 67.2304 50.2497 69.1859 54.2955 65.4447C64.4028 56.0977 74.9521 47.3458 86.2988 39.5615" stroke="#D5FF40" stroke-width="3" stroke-linecap="round"/>
</svg>
