<svg width="74" height="75" viewBox="0 0 74 75" fill="none" xmlns="http://www.w3.org/2000/svg">
<path fill-rule="evenodd" clip-rule="evenodd" d="M5.47913 5.49934C9.78306 1.26356 17.1917 0.854302 25.8232 3.80824C29.366 5.02064 33.0946 6.79413 36.8655 9.0809C31.5647 12.2434 26.1854 16.3847 21.1088 21.3808C16.0324 26.3768 11.8059 31.6892 8.55923 36.9389C6.33296 33.1318 4.61923 29.3754 3.46353 25.8139C0.647738 17.1363 1.17519 9.73512 5.47913 5.49934ZM8.33805 37.2988C0.573287 24.1066 -1.10392 11.4549 5.21754 5.23355C11.539 -0.987836 24.1623 0.891122 37.229 8.86551C50.4211 1.10098 63.0725 -0.576109 69.2938 5.74528C75.5151 12.0667 73.6363 24.6898 65.6621 37.7563C73.4267 50.9484 75.1037 63.5999 68.7824 69.8211C62.4609 76.0424 49.8379 74.1636 36.7715 66.1895C23.5792 73.9543 10.9275 75.6316 4.7062 69.3101C-1.51515 62.9886 0.363759 50.3654 8.33805 37.2988ZM36.4115 65.9684C32.6046 68.1947 28.8482 69.9084 25.2865 71.0641C16.6089 73.8799 9.20777 73.3524 4.972 69.0485C0.736217 64.7446 0.326955 57.3359 3.28089 48.7044C4.49328 45.1617 6.26673 41.4332 8.55345 37.6623C11.7159 42.963 15.8571 48.3421 20.853 53.4185C25.8492 58.4951 31.1618 62.7216 36.4115 65.9684ZM36.775 65.7544C31.4996 62.5119 26.1502 58.2693 21.1189 53.157C16.0876 48.0448 11.9311 42.6286 8.77324 37.3023C12.0156 32.0271 16.2582 26.6779 21.3703 21.6466C26.4827 16.6153 31.899 12.4585 37.2255 9.3007C42.5007 12.5431 47.8498 16.7856 52.881 21.8977C57.9124 27.0101 62.0691 32.4264 65.2269 37.7528C61.9845 43.0282 57.7419 48.3775 52.6296 53.4088C47.5174 58.44 42.1013 62.5966 36.775 65.7544ZM37.135 65.9742C40.9057 68.2608 44.6342 70.0341 48.1767 71.2465C56.8083 74.2004 64.2168 73.7911 68.5208 69.5553C72.8247 65.3196 73.3521 57.9184 70.5364 49.2408C69.3807 45.6793 67.667 41.9231 65.4409 38.1163C62.1942 43.3659 57.9676 48.6785 52.8912 53.6746C47.8149 58.6706 42.4357 62.8117 37.135 65.9742ZM65.4467 37.3928C67.7334 33.622 69.5068 29.8935 70.7191 26.351C73.673 17.7194 73.2637 10.3108 69.028 6.00686C64.7922 1.70293 57.391 1.17547 48.7134 3.99126C45.1521 5.14692 41.3958 6.86055 37.589 9.08669C42.8386 12.3334 48.1509 16.5598 53.1469 21.6362C58.1429 26.7126 62.2842 32.092 65.4467 37.3928ZM36.9999 19.9068L37.286 30.2662C37.3926 34.125 40.4956 37.2281 44.3545 37.3346L54.7138 37.6207L44.3545 37.9067C40.4956 38.0133 37.3926 41.1164 37.286 44.9753L36.9999 55.3345L36.7139 44.9753C36.6074 41.1164 33.5042 38.0133 29.6454 37.9067L19.2861 37.6207L29.6454 37.3346C33.5042 37.2281 36.6074 34.125 36.7139 30.2662L36.9999 19.9068Z" fill="#D5FF40" stroke="#D5FF40" stroke-width="2"/>
</svg>
