<svg width="224" height="141" viewBox="0 0 224 141" fill="none" xmlns="http://www.w3.org/2000/svg">
<path d="M2.00342 8.31284L2.91862 4.11125C4.04182 -0.00727463 5.62264 -5.4568 7.03703 -9.45055C7.66104 -11.1561 8.40984 -12.82 9.20023 -14.484C28.5027 -54.337 89.7795 -66.9834 146.189 -42.8969C146.189 -42.8969 146.189 -42.8969 146.189 -42.8554C88.4068 -62.1163 26.0066 -45.5178 6.70423 -5.70655C4.49943 -1.13044 2.91862 3.57043 2.00342 8.31284Z" fill="#D5FF40"/>
<path d="M2.00342 8.31284L2.91862 4.11125C4.04182 -0.00727463 5.62264 -5.4568 7.03703 -9.45055C7.66104 -11.1561 8.40984 -12.82 9.20023 -14.484C28.5027 -54.337 89.7795 -66.9834 146.189 -42.8969C146.189 -42.8969 146.189 -42.8969 146.189 -42.8554C88.4068 -62.1163 26.0066 -45.5178 6.70423 -5.70655C4.49943 -1.13044 2.91862 3.57043 2.00342 8.31284Z" fill="#D5FF40"/>
<path d="M2.00165 8.31298L2.91685 4.1114C4.04006 -0.0069313 5.62087 -5.45665 7.03527 -9.45021C7.65927 -11.1559 8.40808 -12.8199 9.19846 -14.4839C28.5008 -54.3366 89.7777 -66.9831 146.187 -42.8968C146.187 -42.8968 146.187 -42.8968 146.187 -42.855C88.405 -62.1159 26.0049 -45.5174 6.70247 -5.7062C4.49767 -1.13029 2.91685 3.57058 2.00165 8.31298ZM1.91846 8.89533C2.83366 4.06987 4.41446 -0.755775 6.66086 -5.41493C26.0049 -45.3096 88.613 -62.0327 146.52 -42.7303C90.069 -67.1911 28.6258 -54.7111 9.28167 -14.8167C8.53287 -13.2357 7.82567 -11.655 7.24327 -10.0743C5.82887 -5.83097 4.04006 -0.173428 2.91685 4.1114L1.91846 8.89533Z" fill="#D5FF40"/>
<path d="M2.00165 8.31298L2.91685 4.1114C4.04006 -0.0069313 5.62087 -5.45665 7.03527 -9.45021C7.65927 -11.1559 8.40808 -12.8199 9.19846 -14.4839C28.5008 -54.3366 89.7777 -66.9831 146.187 -42.8968C146.187 -42.8968 146.187 -42.8968 146.187 -42.855C88.405 -62.1159 26.0049 -45.5174 6.70247 -5.7062C4.49767 -1.13029 2.91685 3.57058 2.00165 8.31298ZM1.91846 8.89533C2.83366 4.06987 4.41446 -0.755775 6.66086 -5.41493C26.0049 -45.3096 88.613 -62.0327 146.52 -42.7303C90.069 -67.1911 28.6258 -54.7111 9.28167 -14.8167C8.53287 -13.2357 7.82567 -11.655 7.24327 -10.0743C5.82887 -5.83097 4.04006 -0.173428 2.91685 4.1114L1.91846 8.89533Z" fill="#D5FF40"/>
<path d="M0.296611 37.6413C0.171811 34.4796 -0.0361893 30.278 0.00541069 27.1163L0.296611 20.9595C8.20062 -36.9062 83.4969 -59.079 146.146 -42.8135V-42.7718C87.9065 -53.1719 25.1319 -29.3766 5.82942 10.4348C1.41981 19.5868 -0.36899 28.7803 0.296611 37.6413Z" fill="#D5FF40"/>
<path d="M0.296611 37.6413C0.171811 34.4796 -0.0361893 30.278 0.00541069 27.1163L0.296611 20.9595C8.20062 -36.9062 83.4969 -59.079 146.146 -42.8135V-42.7718C87.9065 -53.1719 25.1319 -29.3766 5.82942 10.4348C1.41981 19.5868 -0.36899 28.7803 0.296611 37.6413Z" fill="#D5FF40"/>
<path d="M0.296611 37.641C0.171811 34.4795 -0.0361893 30.2779 0.00541069 27.1163L0.296611 20.9594C8.20062 -36.9063 83.4969 -59.079 146.146 -42.8135V-42.7718C87.9065 -53.172 25.1319 -29.3767 5.82942 10.4347C1.41981 19.5867 -0.36899 28.7803 0.296611 37.641ZM0.338212 38.1818C-0.327389 29.2378 1.41981 19.9611 5.87103 10.7258C25.2151 -29.1687 88.1975 -53.0887 146.521 -42.7303C65.9415 -62.2822 4.83101 -25.1751 0.338212 20.3771L0.00541069 27.1163C0.0470108 30.4442 0.0886108 34.8538 0.338212 38.1818Z" fill="#D5FF40"/>
<path d="M0.296611 37.641C0.171811 34.4795 -0.0361893 30.2779 0.00541069 27.1163L0.296611 20.9594C8.20062 -36.9063 83.4969 -59.079 146.146 -42.8135V-42.7718C87.9065 -53.172 25.1319 -29.3767 5.82942 10.4347C1.41981 19.5867 -0.36899 28.7803 0.296611 37.641ZM0.338212 38.1818C-0.327389 29.2378 1.41981 19.9611 5.87103 10.7258C25.2151 -29.1687 88.1975 -53.0887 146.521 -42.7303C65.9415 -62.2822 4.83101 -25.1751 0.338212 20.3771L0.00541069 27.1163C0.0470108 30.4442 0.0886108 34.8538 0.338212 38.1818Z" fill="#D5FF40"/>
<path d="M5.24826 63.3087C4.08346 59.0654 2.62746 53.3664 1.71226 49.0815C-0.0765473 39.0974 1.46266 28.3647 6.74587 17.4655C26.0484 -22.3875 88.4069 -49.3027 146.189 -42.7715V-42.7298C89.7796 -43.8114 28.5027 -12.4866 9.20028 27.3246C2.91867 40.3038 1.83706 52.576 5.24826 63.3087Z" fill="#D5FF40"/>
<path d="M5.24826 63.3087C4.08346 59.0654 2.62746 53.3664 1.71226 49.0815C-0.0765473 39.0974 1.46266 28.3647 6.74587 17.4655C26.0484 -22.3875 88.4069 -49.3027 146.189 -42.7715V-42.7298C89.7796 -43.8114 28.5027 -12.4866 9.20028 27.3246C2.91867 40.3038 1.83706 52.576 5.24826 63.3087Z" fill="#D5FF40"/>
<path d="M5.24799 63.3088C4.08318 59.0655 2.62718 53.3662 1.71198 49.0816C-0.076826 39.0975 1.46238 28.3646 6.74559 17.4655C26.048 -22.3874 88.4065 -49.3026 146.189 -42.7715V-42.73C89.7794 -43.8116 28.5025 -12.4866 9.19998 27.3246C2.91837 40.3039 1.83678 52.5759 5.24799 63.3088ZM5.37278 63.7664C-8.43844 8.68783 73.1809 -42.8963 146.522 -42.73C88.6561 -49.5524 26.0065 -22.762 6.66238 17.1327C1.42078 27.9487 -0.0768257 38.6399 1.62878 48.5823C2.58558 53.1582 4.08318 59.232 5.37278 63.7664Z" fill="#D5FF40"/>
<path d="M5.24799 63.3088C4.08318 59.0655 2.62718 53.3662 1.71198 49.0816C-0.076826 39.0975 1.46238 28.3646 6.74559 17.4655C26.048 -22.3874 88.4065 -49.3026 146.189 -42.7715V-42.73C89.7794 -43.8116 28.5025 -12.4866 9.19998 27.3246C2.91837 40.3039 1.83678 52.5759 5.24799 63.3088ZM5.37278 63.7664C-8.43844 8.68783 73.1809 -42.8963 146.522 -42.73C88.6561 -49.5524 26.0065 -22.762 6.66238 17.1327C1.42078 27.9487 -0.0768257 38.6399 1.62878 48.5823C2.58558 53.1582 4.08318 59.232 5.37278 63.7664Z" fill="#D5FF40"/>
<path d="M14.3579 84.274L13.5259 82.818C11.9867 79.7811 9.98995 75.746 8.61714 72.6259C4.16593 61.8931 4.87312 48.8723 11.8203 34.5619C31.1229 -5.24952 91.2349 -39.7775 146.147 -42.6895V-42.6479C93.9805 -34.2863 36.0733 4.65132 16.7708 44.4627C9.03314 60.4372 8.65874 74.1236 14.3579 84.274Z" fill="#D5FF40"/>
<path d="M14.3579 84.274L13.5259 82.818C11.9867 79.7811 9.98995 75.746 8.61714 72.6259C4.16593 61.8931 4.87312 48.8723 11.8203 34.5619C31.1229 -5.24952 91.2349 -39.7775 146.147 -42.6895V-42.6479C93.9805 -34.2863 36.0733 4.65132 16.7708 44.4627C9.03314 60.4372 8.65874 74.1236 14.3579 84.274Z" fill="#D5FF40"/>
<path d="M14.3579 84.2747L13.5259 82.8185C11.9867 79.7818 9.98995 75.7465 8.61714 72.6266C4.16593 61.8936 4.87312 48.8729 11.8203 34.5624C31.1228 -5.24882 91.2349 -39.7768 146.147 -42.6889V-42.6472C93.9805 -34.2858 36.0733 4.65203 16.7708 44.4633C9.03314 60.4377 8.65874 74.1241 14.3579 84.2747ZM14.5659 84.6075C8.82514 74.4986 9.19954 60.8122 16.9372 44.796C36.2811 4.90157 94.3133 -34.2858 146.521 -42.7305C57.9133 -36.0745 -8.52211 29.7785 8.49234 72.2105C9.94834 75.4137 11.9451 79.657 13.5675 82.8185L14.5659 84.6075Z" fill="#D5FF40"/>
<path d="M14.3579 84.2747L13.5259 82.8185C11.9867 79.7818 9.98995 75.7465 8.61714 72.6266C4.16593 61.8936 4.87312 48.8729 11.8203 34.5624C31.1228 -5.24882 91.2349 -39.7768 146.147 -42.6889V-42.6472C93.9805 -34.2858 36.0733 4.65203 16.7708 44.4633C9.03314 60.4377 8.65874 74.1241 14.3579 84.2747ZM14.5659 84.6075C8.82514 74.4986 9.19954 60.8122 16.9372 44.796C36.2811 4.90157 94.3133 -34.2858 146.521 -42.7305C57.9133 -36.0745 -8.52211 29.7785 8.49234 72.2105C9.94834 75.4137 11.9451 79.657 13.5675 82.8185L14.5659 84.6075Z" fill="#D5FF40"/>
<path d="M25.7979 100.832L22.0539 96.0898L18.8922 91.6385C-4.27902 49.7887 75.0107 -24.1762 146.23 -42.6465C146.23 -42.6465 146.23 -42.605 146.272 -42.605C67.814 -10.157 4.04099 74.2913 25.7979 100.832Z" fill="#D5FF40"/>
<path d="M25.7979 100.832L22.0539 96.0898L18.8922 91.6385C-4.27902 49.7887 75.0107 -24.1762 146.23 -42.6465C146.23 -42.6465 146.23 -42.605 146.272 -42.605C67.814 -10.157 4.04099 74.2913 25.7979 100.832Z" fill="#D5FF40"/>
<path d="M25.797 100.831L22.053 96.089L18.8914 91.6377C-4.27982 49.7882 75.0099 -24.1769 146.229 -42.6472C146.229 -42.6472 146.229 -42.6057 146.271 -42.6057C67.8132 -10.1577 4.04019 74.2906 25.797 100.831ZM26.0465 101.081C3.20818 67.3018 81.1251 -17.188 146.521 -42.7305C96.5172 -30.7081 40.3155 11.3912 20.9713 51.2857C12.7762 68.1752 12.485 81.9866 18.725 91.3466L22.0947 96.089L26.0465 101.081Z" fill="#D5FF40"/>
<path d="M25.797 100.831L22.053 96.089L18.8914 91.6377C-4.27982 49.7882 75.0099 -24.1769 146.229 -42.6472C146.229 -42.6472 146.229 -42.6057 146.271 -42.6057C67.8132 -10.1577 4.04019 74.2906 25.797 100.831ZM26.0465 101.081C3.20818 67.3018 81.1251 -17.188 146.521 -42.7305C96.5172 -30.7081 40.3155 11.3912 20.9713 51.2857C12.7762 68.1752 12.485 81.9866 18.725 91.3466L22.0947 96.089L26.0465 101.081Z" fill="#D5FF40"/>
<path d="M38.8598 114.062L34.991 110.61L31.0807 106.741C24.8406 100.168 25.5477 86.9392 34.6167 68.1775C53.9191 28.3662 103.839 -21.1794 146.23 -42.6035C109.247 -16.1042 63.6534 37.5182 44.351 77.3297C34.9078 96.7984 33.4935 109.403 38.8598 114.062Z" fill="#D5FF40"/>
<path d="M38.8598 114.062L34.991 110.61L31.0807 106.741C24.8406 100.168 25.5477 86.9392 34.6167 68.1775C53.9191 28.3662 103.839 -21.1794 146.23 -42.6035C109.247 -16.1042 63.6534 37.5182 44.351 77.3297C34.9078 96.7984 33.4935 109.403 38.8598 114.062Z" fill="#D5FF40"/>
<path d="M38.8605 114.059L34.9917 110.608L31.0814 106.739C24.8413 100.166 25.5486 86.937 34.6174 68.1753C53.9198 28.364 103.84 -21.1817 146.23 -42.6057C109.248 -16.1065 63.6542 37.516 44.3517 77.3273C34.9087 96.7962 33.4942 109.401 38.8605 114.059ZM39.1102 114.309C33.7853 109.692 35.1997 97.129 44.6845 77.6185C64.0287 37.7241 109.622 -16.1481 146.563 -42.7305C103.965 -21.5145 53.7535 27.9897 34.4094 67.8842C25.3406 86.6042 24.675 99.8746 30.9149 106.489L35.075 110.608L39.1102 114.309Z" fill="#D5FF40"/>
<path d="M38.8605 114.059L34.9917 110.608L31.0814 106.739C24.8413 100.166 25.5486 86.937 34.6174 68.1753C53.9198 28.364 103.84 -21.1817 146.23 -42.6057C109.248 -16.1065 63.6542 37.516 44.3517 77.3273C34.9087 96.7962 33.4942 109.401 38.8605 114.059ZM39.1102 114.309C33.7853 109.692 35.1997 97.129 44.6845 77.6185C64.0287 37.7241 109.622 -16.1481 146.563 -42.7305C103.965 -21.5145 53.7535 27.9897 34.4094 67.8842C25.3406 86.6042 24.675 99.8746 30.9149 106.489L35.075 110.608L39.1102 114.309Z" fill="#D5FF40"/>
<path d="M52.4219 124.088C50.2589 122.673 47.3885 120.76 45.2667 119.22L44.5181 118.638C40.1085 115.31 42.1883 103.287 51.8396 83.361C71.142 43.5498 113.408 -12.7769 146.313 -42.5625C146.313 -42.5625 146.355 -42.5625 146.355 -42.521C119.481 -8.57532 82.1245 51.0793 62.8221 90.8905C53.046 111.149 49.7596 122.341 52.4219 124.088Z" fill="#D5FF40"/>
<path d="M52.4219 124.088C50.2589 122.673 47.3885 120.76 45.2667 119.22L44.5181 118.638C40.1085 115.31 42.1883 103.287 51.8396 83.361C71.142 43.5498 113.408 -12.7769 146.313 -42.5625C146.313 -42.5625 146.355 -42.5625 146.355 -42.521C119.481 -8.57532 82.1245 51.0793 62.8221 90.8905C53.046 111.149 49.7596 122.341 52.4219 124.088Z" fill="#D5FF40"/>
<path d="M52.4215 124.086C50.2584 122.673 47.388 120.758 45.2662 119.22L44.5176 118.637C40.108 115.309 42.1878 103.287 51.8391 83.36C71.1415 43.5486 113.407 -12.7779 146.313 -42.5635C146.313 -42.5635 146.355 -42.5635 146.355 -42.5219C119.481 -8.57628 82.124 51.0784 62.8216 90.8896C53.0455 111.149 49.7591 122.34 52.4215 124.086ZM52.6712 124.211C50.0504 122.548 53.3783 111.356 63.1959 91.0976C82.5401 51.2031 119.855 -8.74258 146.521 -42.7715C113.407 -13.1522 70.8505 43.2158 51.5063 83.1103C41.855 102.995 39.8167 115.059 44.2679 118.47L45.2662 119.22C47.5128 120.758 50.4247 122.798 52.6712 124.211Z" fill="#D5FF40"/>
<path d="M52.4215 124.086C50.2584 122.673 47.388 120.758 45.2662 119.22L44.5176 118.637C40.108 115.309 42.1878 103.287 51.8391 83.36C71.1415 43.5486 113.407 -12.7779 146.313 -42.5635C146.313 -42.5635 146.355 -42.5635 146.355 -42.5219C119.481 -8.57628 82.124 51.0784 62.8216 90.8896C53.0455 111.149 49.7591 122.34 52.4215 124.086ZM52.6712 124.211C50.0504 122.548 53.3783 111.356 63.1959 91.0976C82.5401 51.2031 119.855 -8.74258 146.521 -42.7715C113.407 -13.1522 70.8505 43.2158 51.5063 83.1103C41.855 102.995 39.8167 115.059 44.2679 118.47L45.2662 119.22C47.5128 120.758 50.4247 122.798 52.6712 124.211Z" fill="#D5FF40"/>
<path d="M66.4398 131.492C63.9438 130.327 60.6573 128.746 58.203 127.456C56.9966 126.749 61.1981 116.1 71.0575 95.7155C90.3599 55.9043 124.056 -5.91346 146.354 -42.5215H146.395C130.587 -2.71026 102.174 61.6868 82.8718 101.498C73.0127 121.923 67.4382 131.907 66.4398 131.492Z" fill="#D5FF40"/>
<path d="M66.4398 131.492C63.9438 130.327 60.6573 128.746 58.203 127.456C56.9966 126.749 61.1981 116.1 71.0575 95.7155C90.3599 55.9043 124.056 -5.91346 146.354 -42.5215H146.395C130.587 -2.71026 102.174 61.6868 82.8718 101.498C73.0127 121.923 67.4382 131.907 66.4398 131.492Z" fill="#D5FF40"/>
<path d="M66.4408 131.491C63.9449 130.326 60.6584 128.746 58.2041 127.456C56.9977 126.748 61.1993 116.099 71.0584 95.7145C90.361 55.9033 124.057 -5.91441 146.355 -42.5224H146.396C130.588 -2.71122 102.175 61.6858 82.873 101.497C73.0136 121.923 67.4393 131.907 66.4408 131.491ZM66.732 131.616C67.7721 132.074 73.4297 122.09 83.3305 101.705C102.674 61.8106 130.963 -2.83599 146.563 -42.7305C124.015 -6.28874 90.0697 55.612 70.7256 95.5065C60.8665 115.892 56.7064 126.581 57.9961 127.288C60.5337 128.579 63.9449 130.326 66.524 131.491L66.732 131.616Z" fill="#D5FF40"/>
<path d="M66.4408 131.491C63.9449 130.326 60.6584 128.746 58.2041 127.456C56.9977 126.748 61.1993 116.099 71.0584 95.7145C90.361 55.9033 124.057 -5.91441 146.355 -42.5224H146.396C130.588 -2.71122 102.175 61.6858 82.873 101.497C73.0136 121.923 67.4393 131.907 66.4408 131.491ZM66.732 131.616C67.7721 132.074 73.4297 122.09 83.3305 101.705C102.674 61.8106 130.963 -2.83599 146.563 -42.7305C124.015 -6.28874 90.0697 55.612 70.7256 95.5065C60.8665 115.892 56.7064 126.581 57.9961 127.288C60.5337 128.579 63.9449 130.326 66.524 131.491L66.732 131.616Z" fill="#D5FF40"/>
<path d="M81.3334 136.815L77.7559 135.735L72.5142 133.945C75.1767 134.902 81.7494 125.293 91.6087 105.033C110.953 65.2638 135.455 -0.713993 146.479 -42.4805H146.521C142.278 1.49081 123.225 69.2573 103.922 109.069C94.2296 129.036 86.3255 138.188 81.3334 136.815Z" fill="#D5FF40"/>
<path d="M81.3334 136.815L77.7559 135.735L72.5142 133.945C75.1767 134.902 81.7494 125.293 91.6087 105.033C110.953 65.2638 135.455 -0.713993 146.479 -42.4805H146.521C142.278 1.49081 123.225 69.2573 103.922 109.069C94.2296 129.036 86.3255 138.188 81.3334 136.815Z" fill="#D5FF40"/>
<path d="M81.3344 136.815L77.7567 135.735L72.5152 133.945C75.1776 134.902 81.7504 125.293 91.6096 105.034C110.954 65.2639 135.456 -0.713741 146.48 -42.4802H146.522C142.278 1.49106 123.226 69.2576 103.923 109.069C94.2304 129.036 86.3263 138.19 81.3344 136.815ZM81.6257 136.9C86.6591 138.272 94.6047 129.119 104.298 109.152C123.642 69.2576 142.528 1.24132 146.522 -42.7715C135.331 -1.12978 110.579 64.9728 91.2352 104.867C81.4176 125.126 74.8448 134.737 72.2656 133.822L77.7567 135.735L81.6257 136.9Z" fill="#D5FF40"/>
<path d="M81.3344 136.815L77.7567 135.735L72.5152 133.945C75.1776 134.902 81.7504 125.293 91.6096 105.034C110.954 65.2639 135.456 -0.713741 146.48 -42.4802H146.522C142.278 1.49106 123.226 69.2576 103.923 109.069C94.2304 129.036 86.3263 138.19 81.3344 136.815ZM81.6257 136.9C86.6591 138.272 94.6047 129.119 104.298 109.152C123.642 69.2576 142.528 1.24132 146.522 -42.7715C135.331 -1.12978 110.579 64.9728 91.2352 104.867C81.4176 125.126 74.8448 134.737 72.2656 133.822L77.7567 135.735L81.6257 136.9Z" fill="#D5FF40"/>
<path d="M97.6411 140.103C95.2698 139.728 92.1498 139.27 89.8203 138.855L87.9482 138.48C94.4794 139.853 103.257 130.949 112.783 111.274C132.086 71.4621 147.187 2.69722 146.521 -42.4805H146.563C154.009 3.86192 144.399 73.5422 125.097 113.354C115.904 132.364 106.169 141.143 97.6411 140.103Z" fill="#D5FF40"/>
<path d="M97.6411 140.103C95.2698 139.728 92.1498 139.27 89.8203 138.855L87.9482 138.48C94.4794 139.853 103.257 130.949 112.783 111.274C132.086 71.4621 147.187 2.69722 146.521 -42.4805H146.563C154.009 3.86192 144.399 73.5422 125.097 113.354C115.904 132.364 106.169 141.143 97.6411 140.103Z" fill="#D5FF40"/>
<path d="M97.6406 140.102C95.2695 139.728 92.1494 139.27 89.8198 138.855L87.9478 138.48C94.4791 139.852 103.257 130.949 112.783 111.273C132.086 71.4617 147.186 2.69677 146.521 -42.4809H146.562C154.009 3.86166 144.399 73.5417 125.097 113.354C115.903 132.364 106.169 141.143 97.6406 140.102ZM97.9734 140.143C106.543 141.143 116.319 132.406 125.554 113.436C144.898 73.5417 154.3 3.61192 146.562 -42.7305C147.062 2.4055 131.794 71.2954 112.45 111.189C102.924 130.866 94.1879 139.81 87.6982 138.397L89.8615 138.855C92.2326 139.27 95.4775 139.852 97.9734 140.143Z" fill="#D5FF40"/>
<path d="M97.6406 140.102C95.2695 139.728 92.1494 139.27 89.8198 138.855L87.9478 138.48C94.4791 139.852 103.257 130.949 112.783 111.273C132.086 71.4617 147.186 2.69677 146.521 -42.4809H146.562C154.009 3.86166 144.399 73.5417 125.097 113.354C115.903 132.364 106.169 141.143 97.6406 140.102ZM97.9734 140.143C106.543 141.143 116.319 132.406 125.554 113.436C144.898 73.5417 154.3 3.61192 146.562 -42.7305C147.062 2.4055 131.794 71.2954 112.45 111.189C102.924 130.866 94.1879 139.81 87.6982 138.397L89.8615 138.855C92.2326 139.27 95.4775 139.852 97.9734 140.143Z" fill="#D5FF40"/>
<path d="M115.819 140.933C112.575 140.975 108.207 140.933 104.962 140.808C114.655 141.35 124.972 132.655 133.874 114.227C153.176 74.4153 158.834 4.36069 146.562 -42.4395H146.604C165.448 4.44394 165.116 74.54 145.813 114.352C137.41 131.739 126.76 140.476 115.819 140.933Z" fill="#D5FF40"/>
<path d="M115.819 140.933C112.575 140.975 108.207 140.933 104.962 140.808C114.655 141.35 124.972 132.655 133.874 114.227C153.176 74.4153 158.834 4.36069 146.562 -42.4395H146.604C165.448 4.44394 165.116 74.54 145.813 114.352C137.41 131.739 126.76 140.476 115.819 140.933Z" fill="#D5FF40"/>
<path d="M115.821 140.933C112.576 140.975 108.208 140.933 104.963 140.81C114.656 141.35 124.973 132.656 133.875 114.227C153.178 74.4154 158.835 4.36076 146.563 -42.4394H146.605C165.45 4.444 165.117 74.5401 145.814 114.352C137.411 131.741 126.762 140.475 115.821 140.933ZM116.195 140.893C158.71 135.402 175.725 32.4408 146.563 -42.7305C158.71 4.02796 152.886 74.2906 133.542 114.184C124.598 132.656 114.323 141.35 104.672 140.768C108.083 140.893 112.742 141.143 116.195 140.893Z" fill="#D5FF40"/>
<path d="M115.821 140.933C112.576 140.975 108.208 140.933 104.963 140.81C114.656 141.35 124.973 132.656 133.875 114.227C153.178 74.4154 158.835 4.36076 146.563 -42.4394H146.605C165.45 4.444 165.117 74.5401 145.814 114.352C137.411 131.741 126.762 140.475 115.821 140.933ZM116.195 140.893C158.71 135.402 175.725 32.4408 146.563 -42.7305C158.71 4.02796 152.886 74.2906 133.542 114.184C124.598 132.656 114.323 141.35 104.672 140.768C108.083 140.893 112.742 141.143 116.195 140.893Z" fill="#D5FF40"/>
<path d="M136.704 138.147L132.835 138.979C130.255 139.397 126.886 139.979 124.307 140.312C135.663 138.979 146.272 130.203 154.259 113.771C173.561 73.959 170.15 4.11239 146.687 -42.3965H146.729C176.39 3.07248 184.752 72.0869 165.449 111.898C158.211 126.75 148.102 135.486 136.704 138.147Z" fill="#D5FF40"/>
<path d="M136.704 138.147L132.835 138.979C130.255 139.397 126.886 139.979 124.307 140.312C135.663 138.979 146.272 130.203 154.259 113.771C173.561 73.959 170.15 4.11239 146.687 -42.3965H146.729C176.39 3.07248 184.752 72.0869 165.449 111.898C158.211 126.75 148.102 135.486 136.704 138.147Z" fill="#D5FF40"/>
<path d="M136.703 138.147L132.835 138.978C130.255 139.395 126.886 139.977 124.307 140.31C135.663 138.978 146.271 130.201 154.259 113.769C173.561 73.9578 170.15 4.1112 146.687 -42.3977H146.729C176.39 3.07109 184.751 72.0858 165.449 111.896C158.211 126.748 148.102 135.484 136.703 138.147ZM137.119 138.022C148.476 135.317 158.585 126.623 165.782 111.731C185.126 71.8362 176.515 2.69677 146.521 -42.7305C169.9 3.81993 173.187 73.8745 153.843 113.769C145.855 130.243 135.247 139.02 123.891 140.31C126.553 139.935 130.172 139.437 132.835 138.937L137.119 138.022Z" fill="#D5FF40"/>
<path d="M136.703 138.147L132.835 138.978C130.255 139.395 126.886 139.977 124.307 140.31C135.663 138.978 146.271 130.201 154.259 113.769C173.561 73.9578 170.15 4.1112 146.687 -42.3977H146.729C176.39 3.07109 184.751 72.0858 165.449 111.896C158.211 126.748 148.102 135.484 136.703 138.147ZM137.119 138.022C148.476 135.317 158.585 126.623 165.782 111.731C185.126 71.8362 176.515 2.69677 146.521 -42.7305C169.9 3.81993 173.187 73.8745 153.843 113.769C145.855 130.243 135.247 139.02 123.891 140.31C126.553 139.935 130.172 139.437 132.835 138.937L137.119 138.022Z" fill="#D5FF40"/>
<path d="M160.249 129.786C157.253 131.117 153.301 132.905 150.265 134.07L146.271 135.485C157.129 131.907 166.53 123.338 173.145 109.693C192.447 69.8812 180.633 1.82361 146.77 -42.4805H146.812C186.207 -0.422916 202.514 65.8461 183.212 105.657C177.596 117.139 169.65 125.168 160.249 129.786Z" fill="#D5FF40"/>
<path d="M160.249 129.786C157.253 131.117 153.301 132.905 150.265 134.07L146.271 135.485C157.129 131.907 166.53 123.338 173.145 109.693C192.447 69.8812 180.633 1.82361 146.77 -42.4805H146.812C186.207 -0.422916 202.514 65.8461 183.212 105.657C177.596 117.139 169.65 125.168 160.249 129.786Z" fill="#D5FF40"/>
<path d="M160.251 129.784C157.255 131.116 153.303 132.904 150.267 134.069L146.273 135.484C157.131 131.906 166.532 123.337 173.147 109.692C192.45 69.8802 180.635 1.82265 146.772 -42.4814H146.814C186.209 -0.423878 202.516 65.8452 183.214 105.656C177.598 117.139 169.652 125.168 160.251 129.784ZM160.708 129.576C170.068 124.958 177.931 116.929 183.464 105.532C202.808 65.6372 186.251 -0.714954 146.523 -42.6895C194.197 23.5379 193.822 116.889 145.815 135.649L150.267 134.111C153.428 132.779 157.63 131.074 160.708 129.576Z" fill="#D5FF40"/>
<path d="M160.251 129.784C157.255 131.116 153.303 132.904 150.267 134.069L146.273 135.484C157.131 131.906 166.532 123.337 173.147 109.692C192.45 69.8802 180.635 1.82265 146.772 -42.4814H146.814C186.209 -0.423878 202.516 65.8452 183.214 105.656C177.598 117.139 169.652 125.168 160.251 129.784ZM160.708 129.576C170.068 124.958 177.931 116.929 183.464 105.532C202.808 65.6372 186.251 -0.714954 146.523 -42.6895C194.197 23.5379 193.822 116.889 145.815 135.649L150.267 134.111C153.428 132.779 157.63 131.074 160.708 129.576Z" fill="#D5FF40"/>
<path d="M184.627 113.727C175.558 120.965 175.558 120.965 170.483 124.17C178.47 119.177 185.126 111.814 189.868 101.997C209.172 62.1852 189.868 -2.4197 146.771 -42.4805C146.771 -42.4805 146.771 -42.4805 146.812 -42.4805C194.445 -5.78919 217.408 56.1116 198.063 95.9645C194.652 103.078 190.076 108.985 184.627 113.727Z" fill="#D5FF40"/>
<path d="M184.627 113.727C175.558 120.965 175.558 120.965 170.483 124.17C178.47 119.177 185.126 111.814 189.868 101.997C209.172 62.1852 189.868 -2.4197 146.771 -42.4805C146.771 -42.4805 146.771 -42.4805 146.812 -42.4805C194.445 -5.78919 217.408 56.1116 198.063 95.9645C194.652 103.078 190.076 108.985 184.627 113.727Z" fill="#D5FF40"/>
<path d="M184.626 113.727C175.557 120.965 175.557 120.965 170.482 124.168C178.469 119.177 185.125 111.814 189.868 101.996C209.169 62.1849 189.868 -2.41995 146.77 -42.4809C146.77 -42.4809 146.77 -42.4809 146.812 -42.4809C194.444 -5.78964 217.408 56.1113 198.063 95.9643C194.652 103.078 190.076 108.985 184.626 113.727ZM185.042 113.354C190.409 108.652 194.902 102.787 198.313 95.7563C217.658 55.8618 194.485 -6.12244 146.521 -42.7305C189.66 -2.58644 208.921 62.2682 189.577 102.163C184.793 112.064 178.053 119.468 169.983 124.46C179.052 118.387 180.009 117.762 185.042 113.354Z" fill="#D5FF40"/>
<path d="M184.626 113.727C175.557 120.965 175.557 120.965 170.482 124.168C178.469 119.177 185.125 111.814 189.868 101.996C209.169 62.1849 189.868 -2.41995 146.77 -42.4809C146.77 -42.4809 146.77 -42.4809 146.812 -42.4809C194.444 -5.78964 217.408 56.1113 198.063 95.9643C194.652 103.078 190.076 108.985 184.626 113.727ZM185.042 113.354C190.409 108.652 194.902 102.787 198.313 95.7563C217.658 55.8618 194.485 -6.12244 146.521 -42.7305C189.66 -2.58644 208.921 62.2682 189.577 102.163C184.793 112.064 178.053 119.468 169.983 124.46C179.052 118.387 180.009 117.762 185.042 113.354Z" fill="#D5FF40"/>
<path d="M205.468 89.56L203.472 92.5968C200.767 96.2575 197.024 101.042 194.071 104.494C197.606 100.584 200.642 96.0912 203.097 91.0575C222.4 51.2463 197.231 -8.49137 146.854 -42.5618C146.854 -42.5618 146.854 -42.562 146.854 -42.6035C200.352 -12.6514 228.098 43.7583 208.796 83.5695C207.798 85.6913 206.675 87.688 205.468 89.56Z" fill="#D5FF40"/>
<path d="M205.468 89.56L203.472 92.5968C200.767 96.2575 197.024 101.042 194.071 104.494C197.606 100.584 200.642 96.0912 203.097 91.0575C222.4 51.2463 197.231 -8.49137 146.854 -42.5618C146.854 -42.5618 146.854 -42.562 146.854 -42.6035C200.352 -12.6514 228.098 43.7583 208.796 83.5695C207.798 85.6913 206.675 87.688 205.468 89.56Z" fill="#D5FF40"/>
<path d="M205.468 89.5577L203.47 92.5946C200.765 96.2554 197.022 101.039 194.069 104.492C197.604 100.582 200.642 96.0891 203.095 91.0554C222.398 51.2442 197.229 -8.49354 146.852 -42.5642C146.852 -42.5642 146.852 -42.5642 146.852 -42.6057C200.35 -12.6536 228.098 43.7561 208.796 83.5674C207.796 85.6889 206.673 87.6857 205.468 89.5577ZM205.8 89.0586C206.923 87.2699 208.003 85.3561 208.961 83.4011C228.306 43.5064 200.35 -12.9449 146.561 -42.7305C197.022 -8.61851 222.232 51.4105 202.888 91.3049C200.392 96.4218 197.272 100.998 193.651 104.95C196.731 101.331 200.682 96.4219 203.47 92.5946L205.8 89.0586Z" fill="#D5FF40"/>
<path d="M205.468 89.5577L203.47 92.5946C200.765 96.2554 197.022 101.039 194.069 104.492C197.604 100.582 200.642 96.0891 203.095 91.0554C222.398 51.2442 197.229 -8.49354 146.852 -42.5642C146.852 -42.5642 146.852 -42.5642 146.852 -42.6057C200.35 -12.6536 228.098 43.7561 208.796 83.5674C207.796 85.6889 206.673 87.6857 205.468 89.5577ZM205.8 89.0586C206.923 87.2699 208.003 85.3561 208.961 83.4011C228.306 43.5064 200.35 -12.9449 146.561 -42.7305C197.022 -8.61851 222.232 51.4105 202.888 91.3049C200.392 96.4218 197.272 100.998 193.651 104.95C196.731 101.331 200.682 96.4219 203.47 92.5946L205.8 89.0586Z" fill="#D5FF40"/>
<path d="M218.822 59.8575C215.286 70.632 215.078 71.2976 212.166 77.4959C231.094 37.7262 201.974 -15.8961 146.854 -42.5618C146.854 -42.5618 146.854 -42.562 146.854 -42.6035C199.479 -22.261 229.596 21.8766 218.822 59.8575Z" fill="#D5FF40"/>
<path d="M218.822 59.8575C215.286 70.632 215.078 71.2976 212.166 77.4959C231.094 37.7262 201.974 -15.8961 146.854 -42.5618C146.854 -42.5618 146.854 -42.562 146.854 -42.6035C199.479 -22.261 229.596 21.8766 218.822 59.8575Z" fill="#D5FF40"/>
<path d="M218.82 59.8553C215.284 70.6298 215.077 71.2954 212.164 77.4938C231.092 37.7241 201.972 -15.8985 146.852 -42.5642C146.852 -42.5642 146.852 -42.5642 146.852 -42.6057C199.477 -22.2632 229.594 21.8744 218.82 59.8553ZM218.987 59.273C229.886 9.3529 186.747 -26.8808 146.561 -42.7305C201.93 -15.8985 231.176 38.1401 211.914 78.0346C215.7 69.2569 217.447 65.2633 218.987 59.273Z" fill="#D5FF40"/>
<path d="M218.82 59.8553C215.284 70.6298 215.077 71.2954 212.164 77.4938C231.092 37.7241 201.972 -15.8985 146.852 -42.5642C146.852 -42.5642 146.852 -42.5642 146.852 -42.6057C199.477 -22.2632 229.594 21.8744 218.82 59.8553ZM218.987 59.273C229.886 9.3529 186.747 -26.8808 146.561 -42.7305C201.93 -15.8985 231.176 38.1401 211.914 78.0346C215.7 69.2569 217.447 65.2633 218.987 59.273Z" fill="#D5FF40"/>
<path d="M223.024 29.7362L222.982 31.8578C222.69 36.4339 222.192 42.5075 221.609 47.0834C227.393 11.3075 197.191 -26.507 146.854 -42.6479C146.854 -42.6479 146.854 -42.6479 146.854 -42.6895C193.571 -31.9567 223.107 -2.17111 223.024 29.7362Z" fill="#D5FF40"/>
<path d="M223.024 29.7362L222.982 31.8578C222.69 36.4339 222.192 42.5075 221.609 47.0834C227.393 11.3075 197.191 -26.507 146.854 -42.6479C146.854 -42.6479 146.854 -42.6479 146.854 -42.6895C193.571 -31.9567 223.107 -2.17111 223.024 29.7362Z" fill="#D5FF40"/>
<path d="M223.023 29.7374L222.981 31.859C222.691 36.4351 222.191 42.5087 221.608 47.0846C227.391 11.3087 197.19 -26.5058 146.853 -42.6467C146.853 -42.6467 146.853 -42.6467 146.853 -42.6882C193.57 -31.9555 223.106 -2.1699 223.023 29.7374ZM223.023 29.1966C219.945 -22.3459 163.701 -38.9027 146.521 -42.7715C197.19 -26.5475 227.516 11.6415 221.526 47.6254C222.108 42.9247 222.731 36.6014 222.981 31.859L223.023 29.1966Z" fill="#D5FF40"/>
<path d="M223.023 29.7374L222.981 31.859C222.691 36.4351 222.191 42.5087 221.608 47.0846C227.391 11.3087 197.19 -26.5058 146.853 -42.6467C146.853 -42.6467 146.853 -42.6467 146.853 -42.6882C193.57 -31.9555 223.106 -2.1699 223.023 29.7374ZM223.023 29.1966C219.945 -22.3459 163.701 -38.9027 146.521 -42.7715C197.19 -26.5475 227.516 11.6415 221.526 47.6254C222.108 42.9247 222.731 36.6014 222.981 31.859L223.023 29.1966Z" fill="#D5FF40"/>
<path d="M219.82 2.94581L221.443 10.6834L222.441 18.0882C219.53 -10.7406 190.867 -35.4094 146.896 -42.6479V-42.6895C186.874 -39.8191 213.872 -21.4735 219.82 2.94581Z" fill="#D5FF40"/>
<path d="M219.82 2.94581L221.443 10.6834L222.441 18.0882C219.53 -10.7406 190.867 -35.4094 146.896 -42.6479V-42.6895C186.874 -39.8191 213.872 -21.4735 219.82 2.94581Z" fill="#D5FF40"/>
<path d="M219.82 2.94632L221.443 10.6841L222.441 18.0889C219.528 -10.7401 190.866 -35.4089 146.895 -42.6472V-42.6889C186.873 -39.8185 213.872 -21.4728 219.82 2.94632ZM219.695 2.48875C213.662 -21.8473 186.581 -40.0266 146.521 -42.7305C190.825 -35.4089 219.653 -10.4905 222.483 18.588L221.401 10.6841C220.901 8.18801 220.318 4.90157 219.695 2.48875Z" fill="#D5FF40"/>
<path d="M219.82 2.94632L221.443 10.6841L222.441 18.0889C219.528 -10.7401 190.866 -35.4089 146.895 -42.6472V-42.6889C186.873 -39.8185 213.872 -21.4728 219.82 2.94632ZM219.695 2.48875C213.662 -21.8473 186.581 -40.0266 146.521 -42.7305C190.825 -35.4089 219.653 -10.4905 222.483 18.588L221.401 10.6841C220.901 8.18801 220.318 4.90157 219.695 2.48875Z" fill="#D5FF40"/>
</svg>
