<svg width="164" height="120" viewBox="0 0 164 120" fill="none" xmlns="http://www.w3.org/2000/svg">
<mask id="mask0_93_20" style="mask-type:luminance" maskUnits="userSpaceOnUse" x="0" y="0" width="164" height="120">
<path d="M163.39 0H0V120H163.39V0Z" fill="white"/>
</mask>
<g mask="url(#mask0_93_20)">
<path d="M109.271 19.2624V55.801H102.44V20.1589C102.44 13.6547 97.1605 8.38154 90.6518 8.38154H58.3604C51.8501 8.38154 46.5721 13.6562 46.5721 20.1589V55.801H39.5664V19.2624C39.5648 9.48349 47.499 1.55664 57.2886 1.55664H91.5507C101.339 1.55664 109.271 9.48349 109.271 19.2624Z" fill="#D5FF40"/>
<path d="M110.83 57.3572H100.883V20.1588C100.883 14.523 96.2936 9.93775 90.6526 9.93775H58.3597C52.7187 9.93775 48.1292 14.523 48.1292 20.1588V57.3572H38.0078V19.2623C38.0063 8.64125 46.6555 0 57.2879 0H91.5499C102.181 0 110.83 8.64125 110.83 19.2623V57.3572ZM103.999 54.2444H107.714V19.2623C107.714 10.358 100.462 3.11284 91.5484 3.11284H57.2879C48.3738 3.11284 41.1235 10.358 41.1235 19.2623V54.2428H45.0135V20.1572C45.0135 12.8047 51.0004 6.82335 58.3597 6.82335H90.6526C98.012 6.82335 103.999 12.8047 103.999 20.1572V54.2444Z" fill="#D5FF40"/>
<path d="M110.134 117.569H38.7011C30.3853 117.569 23.6444 110.834 23.6444 102.526V51.8662C23.6444 47.1782 27.4487 43.3774 32.141 43.3774H116.692C121.385 43.3774 125.189 47.1782 125.189 51.8662V102.526C125.19 110.834 118.45 117.569 110.134 117.569Z" fill="url(#paint0_linear_93_20)"/>
<path d="M110.133 119.125H38.7004C29.5386 119.125 22.0858 111.679 22.0858 102.526V51.8659C22.0858 46.3266 26.5958 41.8208 32.1402 41.8208H116.692C122.236 41.8208 126.746 46.3266 126.746 51.8659V102.526C126.748 111.679 119.295 119.125 110.133 119.125ZM32.1418 44.9336C28.3157 44.9336 25.2031 48.0434 25.2031 51.8659V102.526C25.2031 109.963 31.2585 116.012 38.7019 116.012H110.134C117.578 116.012 123.633 109.963 123.633 102.526V51.8659C123.633 48.0434 120.521 44.9336 116.695 44.9336H32.1418Z" fill="#D5FF40"/>
<path d="M154.536 80.509H96.6212C92.5911 80.509 89.3242 77.2452 89.3242 73.2187V65.5222C89.3242 61.4957 92.5911 58.2319 96.6212 58.2319H154.536C158.566 58.2319 161.833 61.4957 161.833 65.5222V73.2187C161.833 77.2452 158.566 80.509 154.536 80.509Z" fill="white"/>
<path d="M154.536 82.0652H96.6205C91.7382 82.0652 87.7656 78.0963 87.7656 73.2185V65.522C87.7656 60.6442 91.7382 56.6753 96.6205 56.6753H154.536C159.418 56.6753 163.39 60.6442 163.39 65.522V73.2185C163.39 78.0963 159.418 82.0652 154.536 82.0652ZM96.6205 59.7882C93.4565 59.7882 90.8813 62.3609 90.8813 65.522V73.2185C90.8813 76.3796 93.4565 78.9524 96.6205 78.9524H154.536C157.7 78.9524 160.275 76.3796 160.275 73.2185V65.522C160.275 62.3609 157.7 59.7882 154.536 59.7882H96.6205Z" fill="#D5FF40"/>
<path d="M104.158 72.1714L103.027 70.299L101.912 72.1714L100.482 71.1706L101.912 69.5551L99.8086 69.0554L100.366 67.4835L102.37 68.341L102.184 66.1543H103.901L103.686 68.341L105.803 67.4835L106.303 69.0554L104.157 69.5551L105.587 71.1706L104.158 72.1714Z" fill="#D5FF40"/>
<path d="M115.603 72.1714L114.472 70.299L113.357 72.1714L111.927 71.1706L113.357 69.5551L111.254 69.0554L111.812 67.4835L113.815 68.341L113.63 66.1543H115.346L115.131 68.341L117.249 67.4835L117.749 69.0554L115.602 69.5551L117.032 71.1706L115.603 72.1714Z" fill="#D5FF40"/>
<path d="M127.049 72.1714L125.918 70.299L124.802 72.1714L123.372 71.1706L124.802 69.5551L122.699 69.0554L123.257 67.4835L125.26 68.341L125.075 66.1543H126.792L126.577 68.341L128.694 67.4835L129.194 69.0554L127.047 69.5551L128.477 71.1706L127.049 72.1714Z" fill="#D5FF40"/>
<path d="M138.494 72.1714L137.363 70.299L136.248 72.1714L134.818 71.1706L136.248 69.5551L134.145 69.0554L134.702 67.4835L136.706 68.341L136.52 66.1543H138.237L138.022 68.341L140.139 67.4835L140.639 69.0554L138.493 69.5551L139.923 71.1706L138.494 72.1714Z" fill="#D5FF40"/>
<path d="M149.941 72.1714L148.81 70.299L147.695 72.1714L146.265 71.1706L147.695 69.5551L145.592 69.0554L146.15 67.4835L148.153 68.341L147.968 66.1543H149.684L149.469 68.341L151.586 67.4835L152.088 69.0554L149.941 69.5551L151.371 71.1706L149.941 72.1714Z" fill="#D5FF40"/>
<path d="M19.1609 118.444C28.8823 118.444 36.7631 110.57 36.7631 100.858C36.7631 91.145 28.8823 83.2715 19.1609 83.2715C9.43939 83.2715 1.55859 91.145 1.55859 100.858C1.55859 110.57 9.43939 118.444 19.1609 118.444Z" fill="white"/>
<path d="M19.1601 120C8.59471 120 0 111.413 0 100.858C0 90.3021 8.59471 81.7153 19.1601 81.7153C29.7255 81.7153 38.3202 90.3021 38.3202 100.858C38.3202 111.413 29.724 120 19.1601 120ZM19.1601 84.8297C10.313 84.8297 3.11572 92.0204 3.11572 100.858C3.11572 109.695 10.313 116.887 19.1601 116.887C28.0072 116.887 35.2045 109.697 35.2045 100.858C35.2045 92.0188 28.0056 84.8297 19.1601 84.8297Z" fill="#D5FF40"/>
<path d="M17.1957 108.935L10.2538 101.86L12.4785 99.6812L17.2455 104.539L28.1132 93.9551L30.2879 96.1839L17.1957 108.935Z" fill="#D5FF40"/>
</g>
<defs>
<linearGradient id="paint0_linear_93_20" x1="23.6444" y1="80.4732" x2="108.434" y2="80.4732" gradientUnits="userSpaceOnUse">
<stop stop-color="#D5FF40"/>
<stop offset="1" stop-color="#270454"/>
</linearGradient>
</defs>
</svg>
