<svg width="150" height="122" viewBox="0 0 150 122" fill="none" xmlns="http://www.w3.org/2000/svg">
<path d="M2 105.567C9.34783 80.3919 19.1118 58.2772 34.705 37.2521C43.4228 25.4975 53.6702 12.4563 67.0051 5.57169C87.8222 -5.17575 78.222 23.3205 75.1546 33.1589C68.1457 55.6418 61.8455 78.257 55.291 100.873C54.0046 105.311 50.2409 118.641 51.2219 114.125C53.5224 103.533 58.5965 92.7119 63.3639 83.0688C76.5945 56.3083 95.3526 26.2114 118.405 6.69365C126.122 0.159924 132.044 -0.771422 129.909 11.8512C124.122 46.0716 109.347 78.4422 101.345 112.191C99.5567 119.737 98.4452 123.708 103.81 115.247C117.212 94.1076 131.675 73.8044 148 54.823" stroke="#D5FF40" stroke-width="4" stroke-linecap="round"/>
</svg>
