<svg width="177" height="177" viewBox="0 0 177 177" fill="none" xmlns="http://www.w3.org/2000/svg">
<path d="M142.928 18.7393C144.809 20.291 147.286 22.404 149.101 24.0218C144.05 19.3006 132.726 21.2814 116.482 31.054C116.482 31.054 116.449 31.054 116.449 31.0211C130.019 19.6307 139.164 15.7679 142.928 18.7393Z" fill="#D5FF40"/>
<path d="M142.928 18.7393C144.809 20.291 147.286 22.404 149.101 24.0218C144.05 19.3006 132.726 21.2814 116.482 31.054C116.482 31.054 116.449 31.054 116.449 31.0211C130.019 19.6307 139.164 15.7679 142.928 18.7393Z" fill="#D5FF40"/>
<path d="M142.928 18.7395C144.809 20.2913 147.286 22.4042 149.101 24.022C144.05 19.3008 132.726 21.2817 116.482 31.0543C116.482 31.0543 116.449 31.0543 116.449 31.0213C130.019 19.6309 139.164 15.7681 142.928 18.7395ZM142.729 18.5744C138.966 15.6361 129.853 19.5979 116.284 31.1533C132.693 21.3148 144.116 19.3338 149.2 24.1211C147.286 22.4373 144.71 20.1922 142.729 18.5744Z" fill="#D5FF40"/>
<path d="M142.928 18.7395C144.809 20.2913 147.286 22.4042 149.101 24.022C144.05 19.3008 132.726 21.2817 116.482 31.0543C116.482 31.0543 116.449 31.0543 116.449 31.0213C130.019 19.6309 139.164 15.7681 142.928 18.7395ZM142.729 18.5744C138.966 15.6361 129.853 19.5979 116.284 31.1533C132.693 21.3148 144.116 19.3338 149.2 24.1211C147.286 22.4373 144.71 20.1922 142.729 18.5744Z" fill="#D5FF40"/>
<path d="M132.099 11.5083L132.76 11.8715C134.476 12.928 136.755 14.3146 138.438 15.4372C135.665 13.4892 128.137 18.5406 116.45 31.0204C116.45 31.0204 116.417 31.0204 116.417 30.9873C120.775 24.4504 129.92 10.782 132.099 11.5083Z" fill="#D5FF40"/>
<path d="M132.099 11.5083L132.76 11.8715C134.476 12.928 136.755 14.3146 138.438 15.4372C135.665 13.4892 128.137 18.5406 116.45 31.0204C116.45 31.0204 116.417 31.0204 116.417 30.9873C120.775 24.4504 129.92 10.782 132.099 11.5083Z" fill="#D5FF40"/>
<path d="M132.099 11.5081L132.759 11.8712C134.476 12.9277 136.754 14.3144 138.437 15.437C135.664 13.489 128.137 18.5403 116.449 31.0202C116.449 31.0202 116.416 31.0202 116.416 30.9871C120.774 24.4501 129.92 10.7817 132.099 11.5081ZM131.867 11.376C130.646 10.6827 125.396 17.2197 116.284 31.1853C128.137 18.6394 135.796 13.6211 138.636 15.6021C136.886 14.4795 134.542 12.9607 132.759 11.8712L131.867 11.376Z" fill="#D5FF40"/>
<path d="M132.099 11.5081L132.759 11.8712C134.476 12.9277 136.754 14.3144 138.437 15.437C135.664 13.489 128.137 18.5403 116.449 31.0202C116.449 31.0202 116.416 31.0202 116.416 30.9871C120.774 24.4501 129.92 10.7817 132.099 11.5081ZM131.867 11.376C130.646 10.6827 125.396 17.2197 116.284 31.1853C128.137 18.6394 135.796 13.6211 138.636 15.6021C136.886 14.4795 134.542 12.9607 132.759 11.8712L131.867 11.376Z" fill="#D5FF40"/>
<path d="M120.774 6.12695L124.175 7.54661L127.41 9.0323C127.344 8.96628 123.679 16.2626 116.35 30.9876H116.317C121.104 15.0411 122.458 6.75425 120.774 6.12695Z" fill="#D5FF40"/>
<path d="M120.774 6.12695L124.175 7.54661L127.41 9.0323C127.344 8.96628 123.679 16.2626 116.35 30.9876H116.317C121.104 15.0411 122.458 6.75425 120.774 6.12695Z" fill="#D5FF40"/>
<path d="M120.774 6.12638L124.175 7.54606L127.41 9.03175C127.344 8.96571 123.68 16.2621 116.35 30.9869H116.317C121.104 15.0405 122.458 6.75368 120.774 6.12638ZM120.576 6.02734C122.326 6.65464 121.038 15.0735 116.284 31.1851C123.713 16.3611 127.509 9.06475 127.641 9.13079L124.208 7.51304L120.576 6.02734Z" fill="#D5FF40"/>
<path d="M120.774 6.12638L124.175 7.54606L127.41 9.03175C127.344 8.96571 123.68 16.2621 116.35 30.9869H116.317C121.104 15.0405 122.458 6.75368 120.774 6.12638ZM120.576 6.02734C122.326 6.65464 121.038 15.0735 116.284 31.1851C123.713 16.3611 127.509 9.06475 127.641 9.13079L124.208 7.51304L120.576 6.02734Z" fill="#D5FF40"/>
<path d="M108.691 2.36328C110.672 2.89154 113.313 3.58485 115.261 4.17913L115.855 4.37723C118.827 5.33467 119.223 14.2818 116.318 30.9877H116.284C116.549 13.1263 113.61 3.48581 108.691 2.36328Z" fill="#D5FF40"/>
<path d="M108.691 2.36328C110.672 2.89154 113.313 3.58485 115.261 4.17913L115.855 4.37723C118.827 5.33467 119.223 14.2818 116.318 30.9877H116.284C116.549 13.1263 113.61 3.48581 108.691 2.36328Z" fill="#D5FF40"/>
<path d="M108.691 2.36487C110.672 2.89311 113.313 3.58644 115.261 4.18072L115.855 4.3788C118.827 5.33625 119.223 14.2834 116.318 30.9892H116.285C116.549 13.1279 113.61 3.48738 108.691 2.36487ZM108.46 2.29883C110.672 3.19024 116.516 5.60037 116.318 31.1873C119.322 14.3494 119.025 5.36927 116.086 4.44484L115.261 4.18072C113.214 3.58644 110.507 2.79406 108.46 2.29883Z" fill="#D5FF40"/>
<path d="M108.691 2.36487C110.672 2.89311 113.313 3.58644 115.261 4.18072L115.855 4.3788C118.827 5.33625 119.223 14.2834 116.318 30.9892H116.285C116.549 13.1279 113.61 3.48738 108.691 2.36487ZM108.46 2.29883C110.672 3.19024 116.516 5.60037 116.318 31.1873C119.322 14.3494 119.025 5.36927 116.086 4.44484L115.261 4.18072C113.214 3.58644 110.507 2.79406 108.46 2.29883Z" fill="#D5FF40"/>
<path d="M95.3862 0.283203C97.7633 0.547326 100.9 0.910495 103.277 1.27366C109.649 2.33015 114.535 12.3668 116.285 30.9544H116.252C111.597 11.3434 103.871 0.976524 95.3862 0.283203Z" fill="#D5FF40"/>
<path d="M95.3862 0.283203C97.7633 0.547326 100.9 0.910495 103.277 1.27366C109.649 2.33015 114.535 12.3668 116.285 30.9544H116.252C111.597 11.3434 103.871 0.976524 95.3862 0.283203Z" fill="#D5FF40"/>
<path d="M95.3872 0.283203C97.7642 0.547326 100.901 0.910495 103.278 1.27366C109.65 2.33015 114.536 12.3668 116.286 30.9544H116.253C111.598 11.3434 103.872 0.976525 95.3872 0.283203ZM95.123 0.283203C103.707 0.94351 111.532 11.4094 116.286 31.1856C114.635 12.4659 109.881 2.39619 103.509 1.30668C101.066 0.94351 97.8303 0.51431 95.3872 0.283203H95.123Z" fill="#D5FF40"/>
<path d="M95.3872 0.283203C97.7642 0.547326 100.901 0.910495 103.278 1.27366C109.65 2.33015 114.536 12.3668 116.286 30.9544H116.253C111.598 11.3434 103.872 0.976525 95.3872 0.283203ZM95.123 0.283203C103.707 0.94351 111.532 11.4094 116.286 31.1856C114.635 12.4659 109.881 2.39619 103.509 1.30668C101.066 0.94351 97.8303 0.51431 95.3872 0.283203H95.123Z" fill="#D5FF40"/>
<path d="M80.2983 0.3827L84.0952 0.118577L89.2786 0.0195312C100.735 1.17507 108.56 10.1222 116.219 30.955H116.186C105.918 9.62701 92.6462 -0.805853 80.2983 0.3827Z" fill="#D5FF40"/>
<path d="M80.2983 0.3827L84.0952 0.118577L89.2786 0.0195312C100.735 1.17507 108.56 10.1222 116.219 30.955H116.186C105.918 9.62701 92.6462 -0.805853 80.2983 0.3827Z" fill="#D5FF40"/>
<path d="M80.2975 0.3827L84.0943 0.118577L89.2777 0.0195312C100.734 1.17507 108.559 10.1222 116.218 30.955H116.185C105.917 9.62701 92.6452 -0.805853 80.2975 0.3827ZM79.9673 0.415716C92.4471 -0.838869 105.884 9.66003 116.284 31.186C109.483 10.6835 99.6115 0.118577 89.5418 0.0195312C87.891 0.0525467 85.712 0.0525467 84.0943 0.118577L79.9673 0.415716Z" fill="#D5FF40"/>
<path d="M80.2975 0.3827L84.0943 0.118577L89.2777 0.0195312C100.734 1.17507 108.559 10.1222 116.218 30.955H116.185C105.917 9.62701 92.6452 -0.805853 80.2975 0.3827ZM79.9673 0.415716C92.4471 -0.838869 105.884 9.66003 116.284 31.186C109.483 10.6835 99.6115 0.118577 89.5418 0.0195312C87.891 0.0525467 85.712 0.0525467 84.0943 0.118577L79.9673 0.415716Z" fill="#D5FF40"/>
<path d="M63.064 3.71678C65.6061 3.05648 68.9738 2.16506 71.5489 1.63681L73.3978 1.30666C87.3633 -1.13648 103.277 8.96622 116.153 30.9544H116.12C99.2488 8.10782 79.2415 -1.1695 63.064 3.71678Z" fill="#D5FF40"/>
<path d="M63.064 3.71678C65.6061 3.05648 68.9738 2.16506 71.5489 1.63681L73.3978 1.30666C87.3633 -1.13648 103.277 8.96622 116.153 30.9544H116.12C99.2488 8.10782 79.2415 -1.1695 63.064 3.71678Z" fill="#D5FF40"/>
<path d="M63.0651 3.71773C65.6072 3.05743 68.9747 2.16602 71.55 1.63776L73.3988 1.30761C87.3644 -1.13553 103.278 8.96717 116.154 30.9554H116.121C99.2499 8.10878 79.2426 -1.16854 63.0651 3.71773ZM62.7349 3.81677C79.0114 -1.20156 99.2499 8.14179 116.286 31.1534C103.509 9.03321 87.6615 -1.16854 73.6959 1.20857L71.55 1.60474C68.9088 2.26506 65.3761 3.09044 62.7349 3.81677Z" fill="#D5FF40"/>
<path d="M63.0651 3.71773C65.6072 3.05743 68.9747 2.16602 71.55 1.63776L73.3988 1.30761C87.3644 -1.13553 103.278 8.96717 116.154 30.9554H116.121C99.2499 8.10878 79.2426 -1.16854 63.0651 3.71773ZM62.7349 3.81677C79.0114 -1.20156 99.2499 8.14179 116.286 31.1534C103.509 9.03321 87.6615 -1.16854 73.6959 1.20857L71.55 1.60474C68.9088 2.26506 65.3761 3.09044 62.7349 3.81677Z" fill="#D5FF40"/>
<path d="M44.0132 12.0035C47.3477 10.2207 51.8378 8.00864 55.3044 6.48993C72.8686 -0.674402 96.0784 7.64548 116.119 30.9874H116.086C91.2581 7.24928 63.1621 0.844304 44.0132 12.0035Z" fill="#D5FF40"/>
<path d="M44.0132 12.0035C47.3477 10.2207 51.8378 8.00864 55.3044 6.48993C72.8686 -0.674402 96.0784 7.64548 116.119 30.9874H116.086C91.2581 7.24928 63.1621 0.844304 44.0132 12.0035Z" fill="#D5FF40"/>
<path d="M44.014 12.0034C47.3486 10.2206 51.8386 8.00856 55.3053 6.48984C72.8695 -0.674488 96.0792 7.6454 116.12 30.9872H116.087C91.259 7.2492 63.1629 0.84422 44.014 12.0034ZM43.6509 12.2015C62.8657 0.91025 91.259 7.28222 116.285 31.1853C96.3764 7.74444 73.2326 -0.74052 55.6684 6.32477C47.7448 9.82441 47.6127 9.89043 43.6509 12.2015Z" fill="#D5FF40"/>
<path d="M44.014 12.0034C47.3486 10.2206 51.8386 8.00856 55.3053 6.48984C72.8695 -0.674488 96.0792 7.6454 116.12 30.9872H116.087C91.259 7.2492 63.1629 0.84422 44.014 12.0034ZM43.6509 12.2015C62.8657 0.91025 91.259 7.28222 116.285 31.1853C96.3764 7.74444 73.2326 -0.74052 55.6684 6.32477C47.7448 9.82441 47.6127 9.89043 43.6509 12.2015Z" fill="#D5FF40"/>
<path d="M25.0298 26.7944L28.1992 23.691C30.4112 21.7761 33.3826 19.2339 35.7267 17.451C55.5029 2.72622 87.4948 7.11726 116.086 30.9873C116.086 30.9873 116.086 30.9873 116.053 31.0205C82.1464 7.48042 44.6738 6.589 25.0298 26.7944Z" fill="#D5FF40"/>
<path d="M25.0298 26.7944L28.1992 23.691C30.4112 21.7761 33.3826 19.2339 35.7267 17.451C55.5029 2.72622 87.4948 7.11726 116.086 30.9873C116.086 30.9873 116.086 30.9873 116.053 31.0205C82.1464 7.48042 44.6738 6.589 25.0298 26.7944Z" fill="#D5FF40"/>
<path d="M25.0309 26.7951L28.2003 23.6916C30.4124 21.7767 33.3838 19.2345 35.728 17.4518C55.5041 2.72693 87.496 7.11797 116.087 30.9881C116.087 30.9881 116.087 30.9881 116.054 31.0211C82.1474 7.48113 44.6751 6.58971 25.0309 26.7951ZM24.7007 27.1253C44.3449 6.68877 82.1474 7.48113 116.285 31.1862C87.8261 7.15097 55.9002 2.59487 36.1241 17.1547C33.714 19.0696 30.5444 21.6118 28.2334 23.6587L24.7007 27.1253Z" fill="#D5FF40"/>
<path d="M25.0309 26.7951L28.2003 23.6916C30.4124 21.7767 33.3838 19.2345 35.728 17.4518C55.5041 2.72693 87.496 7.11797 116.087 30.9881C116.087 30.9881 116.087 30.9881 116.054 31.0211C82.1474 7.48113 44.6751 6.58971 25.0309 26.7951ZM24.7007 27.1253C44.3449 6.68877 82.1474 7.48113 116.285 31.1862C87.8261 7.15097 55.9002 2.59487 36.1241 17.1547C33.714 19.0696 30.5444 21.6118 28.2334 23.6587L24.7007 27.1253Z" fill="#D5FF40"/>
<path d="M9.97461 47.627C11.5593 44.8206 13.7384 41.1229 15.4882 38.4156L18.0633 34.8499C36.7171 10.3526 78.2505 8.07451 116.053 31.0203C116.053 31.0203 116.053 31.0202 116.053 31.0532C72.9679 9.5602 25.921 17.0217 9.97461 47.627Z" fill="#D5FF40"/>
<path d="M9.97461 47.627C11.5593 44.8206 13.7384 41.1229 15.4882 38.4156L18.0633 34.8499C36.7171 10.3526 78.2505 8.07451 116.053 31.0203C116.053 31.0203 116.053 31.0202 116.053 31.0532C72.9679 9.5602 25.921 17.0217 9.97461 47.627Z" fill="#D5FF40"/>
<path d="M9.97445 47.6267C11.5592 44.8205 13.7382 41.1226 15.488 38.4154L18.0633 34.8498C36.7169 10.3523 78.2502 8.07428 116.053 31.02C116.053 31.02 116.053 31.02 116.053 31.053C72.9678 9.55997 25.9209 17.0215 9.97445 47.6267ZM9.77637 48.0889C25.5908 17.1866 73.0008 9.59299 116.284 31.1851C78.6134 8.04128 37.1131 10.0882 18.3603 34.4865L15.5211 38.4154C13.7052 41.2877 11.3611 45.1175 9.77637 48.0889Z" fill="#D5FF40"/>
<path d="M9.97445 47.6267C11.5592 44.8205 13.7382 41.1226 15.488 38.4154L18.0633 34.8498C36.7169 10.3523 78.2502 8.07428 116.053 31.02C116.053 31.02 116.053 31.02 116.053 31.053C72.9678 9.55997 25.9209 17.0215 9.97445 47.6267ZM9.77637 48.0889C25.5908 17.1866 73.0008 9.59299 116.284 31.1851C78.6134 8.04128 37.1131 10.0882 18.3603 34.4865L15.5211 38.4154C13.7052 41.2877 11.3611 45.1175 9.77637 48.0889Z" fill="#D5FF40"/>
<path d="M1.58984 71.6952L2.31618 68.3607C3.2076 65.092 4.46219 60.7671 5.58471 57.5975C6.07994 56.244 6.67422 54.9234 7.3015 53.6028C22.6206 21.974 71.2522 11.9373 116.021 31.0532C116.021 31.0532 116.021 31.0532 116.021 31.0862C70.1628 15.8001 20.6396 28.9732 5.32059 60.5689C3.57077 64.2007 2.31618 67.9314 1.58984 71.6952Z" fill="#D5FF40"/>
<path d="M1.58984 71.6952L2.31618 68.3607C3.2076 65.092 4.46219 60.7671 5.58471 57.5975C6.07994 56.244 6.67422 54.9234 7.3015 53.6028C22.6206 21.974 71.2522 11.9373 116.021 31.0532C116.021 31.0532 116.021 31.0532 116.021 31.0862C70.1628 15.8001 20.6396 28.9732 5.32059 60.5689C3.57077 64.2007 2.31618 67.9314 1.58984 71.6952Z" fill="#D5FF40"/>
<path d="M1.58849 71.6963L2.31483 68.3618C3.20624 65.0933 4.46083 60.7682 5.58335 57.5988C6.07859 56.2451 6.67286 54.9245 7.30014 53.6039C22.6192 21.9753 71.2508 11.9385 116.02 31.0544C116.02 31.0544 116.02 31.0544 116.02 31.0875C70.1614 15.8014 20.6384 28.9745 5.31923 60.5702C3.56942 64.2018 2.31483 67.9326 1.58849 71.6963ZM1.52246 72.1585C2.2488 68.3289 3.50338 64.499 5.28621 60.8014C20.6384 29.1395 70.3265 15.8674 116.284 31.1865C71.482 11.7735 22.7184 21.6781 7.36618 53.3398C6.7719 54.5945 6.21065 55.849 5.74843 57.1035C4.62591 60.4712 3.20624 64.9612 2.31483 68.3618L1.52246 72.1585Z" fill="#D5FF40"/>
<path d="M1.58849 71.6963L2.31483 68.3618C3.20624 65.0933 4.46083 60.7682 5.58335 57.5988C6.07859 56.2451 6.67286 54.9245 7.30014 53.6039C22.6192 21.9753 71.2508 11.9385 116.02 31.0544C116.02 31.0544 116.02 31.0544 116.02 31.0875C70.1614 15.8014 20.6384 28.9745 5.31923 60.5702C3.56942 64.2018 2.31483 67.9326 1.58849 71.6963ZM1.52246 72.1585C2.2488 68.3289 3.50338 64.499 5.28621 60.8014C20.6384 29.1395 70.3265 15.8674 116.284 31.1865C71.482 11.7735 22.7184 21.6781 7.36618 53.3398C6.7719 54.5945 6.21065 55.849 5.74843 57.1035C4.62591 60.4712 3.20624 64.9612 2.31483 68.3618L1.52246 72.1585Z" fill="#D5FF40"/>
<path d="M0.235402 94.9716C0.136356 92.4624 -0.0287212 89.1278 0.00429412 86.6186L0.235402 81.7323C6.50832 35.808 66.2662 18.2108 115.987 31.1197V31.1528C69.7658 22.8989 19.9456 41.7837 4.62645 73.3795C1.12682 80.6429 -0.292844 87.9392 0.235402 94.9716Z" fill="#D5FF40"/>
<path d="M0.235402 94.9716C0.136356 92.4624 -0.0287212 89.1278 0.00429412 86.6186L0.235402 81.7323C6.50832 35.808 66.2662 18.2108 115.987 31.1197V31.1528C69.7658 22.8989 19.9456 41.7837 4.62645 73.3795C1.12682 80.6429 -0.292844 87.9392 0.235402 94.9716Z" fill="#D5FF40"/>
<path d="M0.235402 94.9709C0.136356 92.4619 -0.0287212 89.1273 0.00429413 86.6181L0.235402 81.7318C6.50832 35.8075 66.2662 18.2103 115.987 31.1192V31.1524C69.7658 22.8984 19.9456 41.7832 4.62645 73.379C1.12682 80.6424 -0.292844 87.9387 0.235402 94.9709ZM0.268418 95.4001C-0.259828 88.3019 1.12682 80.9395 4.65946 73.61C20.0117 41.9483 69.9968 22.9645 116.284 31.1853C52.3336 15.6682 3.83407 45.1177 0.268418 81.2697L0.00429413 86.6181C0.0373095 89.2593 0.0703248 92.7589 0.268418 95.4001Z" fill="#D5FF40"/>
<path d="M0.235402 94.9709C0.136356 92.4619 -0.0287212 89.1273 0.00429413 86.6181L0.235402 81.7318C6.50832 35.8075 66.2662 18.2103 115.987 31.1192V31.1524C69.7658 22.8984 19.9456 41.7832 4.62645 73.379C1.12682 80.6424 -0.292844 87.9387 0.235402 94.9709ZM0.268418 95.4001C-0.259828 88.3019 1.12682 80.9395 4.65946 73.61C20.0117 41.9483 69.9968 22.9645 116.284 31.1853C52.3336 15.6682 3.83407 45.1177 0.268418 81.2697L0.00429413 86.6181C0.0373095 89.2593 0.0703248 92.7589 0.268418 95.4001Z" fill="#D5FF40"/>
<path d="M4.16532 115.343C3.24089 111.976 2.08535 107.452 1.35902 104.052C-0.060644 96.1282 1.16093 87.6102 5.35388 78.9602C20.6731 47.3314 70.1631 25.9705 116.021 31.1539V31.187C71.2525 30.3286 22.6209 55.1891 7.30179 86.7848C2.31647 97.0856 1.45806 106.825 4.16532 115.343Z" fill="#D5FF40"/>
<path d="M4.16532 115.343C3.24089 111.976 2.08535 107.452 1.35902 104.052C-0.060644 96.1282 1.16093 87.6102 5.35388 78.9602C20.6731 47.3314 70.1631 25.9705 116.021 31.1539V31.187C71.2525 30.3286 22.6209 55.1891 7.30179 86.7848C2.31647 97.0856 1.45806 106.825 4.16532 115.343Z" fill="#D5FF40"/>
<path d="M4.16484 115.342C3.24041 111.974 2.08487 107.451 1.35853 104.051C-0.0611292 96.1271 1.16044 87.6091 5.35339 78.9592C20.6725 47.3304 70.1625 25.9695 116.021 31.1529V31.1858C71.2521 30.3274 22.6205 55.1881 7.30129 86.7838C2.31597 97.0846 1.45758 106.824 4.16484 115.342ZM4.26388 115.705C-6.69721 71.9929 58.0789 31.0539 116.285 31.1858C70.3606 25.7713 20.6395 47.0332 5.28736 78.6951C1.12742 87.279 -0.061129 95.764 1.2925 103.655C2.05185 107.286 3.24041 112.107 4.26388 115.705Z" fill="#D5FF40"/>
<path d="M4.16484 115.342C3.24041 111.974 2.08487 107.451 1.35853 104.051C-0.0611292 96.1271 1.16044 87.6091 5.35339 78.9592C20.6725 47.3304 70.1625 25.9695 116.021 31.1529V31.1858C71.2521 30.3274 22.6205 55.1881 7.30129 86.7838C2.31597 97.0846 1.45758 106.824 4.16484 115.342ZM4.26388 115.705C-6.69721 71.9929 58.0789 31.0539 116.285 31.1858C70.3606 25.7713 20.6395 47.0332 5.28736 78.6951C1.12742 87.279 -0.061129 95.764 1.2925 103.655C2.05185 107.286 3.24041 112.107 4.26388 115.705Z" fill="#D5FF40"/>
<path d="M11.3949 131.982L10.7346 130.826C9.51304 128.416 7.9283 125.214 6.83879 122.737C3.30614 114.219 3.8674 103.886 9.38098 92.5283C24.7002 60.9325 72.4073 33.5298 115.988 31.2188V31.2517C74.5863 37.8878 28.629 68.7901 13.3098 100.386C7.16895 113.064 6.87181 123.926 11.3949 131.982Z" fill="#D5FF40"/>
<path d="M11.3949 131.982L10.7346 130.826C9.51304 128.416 7.9283 125.214 6.83879 122.737C3.30614 114.219 3.8674 103.886 9.38098 92.5283C24.7002 60.9325 72.4073 33.5298 115.988 31.2188V31.2517C74.5863 37.8878 28.629 68.7901 13.3098 100.386C7.16895 113.064 6.87181 123.926 11.3949 131.982Z" fill="#D5FF40"/>
<path d="M11.3949 131.982L10.7346 130.826C9.51304 128.416 7.9283 125.213 6.83879 122.737C3.30614 114.219 3.8674 103.885 9.38098 92.528C24.7002 60.9324 72.4073 33.5297 115.988 31.2185V31.2516C74.5863 37.8876 28.629 68.7901 13.3098 100.386C7.16894 113.064 6.87181 123.926 11.3949 131.982ZM11.56 132.246C7.00387 124.223 7.301 113.361 13.4419 100.65C28.7939 68.9881 74.8504 37.8876 116.285 31.1855C45.962 36.4679 -6.76355 88.7313 6.73975 122.407C7.89528 124.949 9.48002 128.317 10.7676 130.826L11.56 132.246Z" fill="#D5FF40"/>
<path d="M11.3949 131.982L10.7346 130.826C9.51304 128.416 7.9283 125.213 6.83879 122.737C3.30614 114.219 3.8674 103.885 9.38098 92.528C24.7002 60.9324 72.4073 33.5297 115.988 31.2185V31.2516C74.5863 37.8876 28.629 68.7901 13.3098 100.386C7.16894 113.064 6.87181 123.926 11.3949 131.982ZM11.56 132.246C7.00387 124.223 7.301 113.361 13.4419 100.65C28.7939 68.9881 74.8504 37.8876 116.285 31.1855C45.962 36.4679 -6.76355 88.7313 6.73975 122.407C7.89528 124.949 9.48002 128.317 10.7676 130.826L11.56 132.246Z" fill="#D5FF40"/>
<path d="M20.4741 145.122L17.5027 141.358L14.9935 137.825C-3.39605 104.612 59.5312 45.9107 116.054 31.252C116.054 31.252 116.054 31.2849 116.087 31.2849C53.8196 57.0368 3.20702 124.058 20.4741 145.122Z" fill="#D5FF40"/>
<path d="M20.4741 145.122L17.5027 141.358L14.9935 137.825C-3.39605 104.612 59.5312 45.9107 116.054 31.252C116.054 31.252 116.054 31.2849 116.087 31.2849C53.8196 57.0368 3.20702 124.058 20.4741 145.122Z" fill="#D5FF40"/>
<path d="M20.4729 145.122L17.5016 141.358L14.9924 137.825C-3.39713 104.612 59.5302 45.9103 116.052 31.2516C116.052 31.2516 116.052 31.2846 116.086 31.2846C53.8186 57.0365 3.20594 124.058 20.4729 145.122ZM20.671 145.32C2.54563 118.511 64.3834 51.457 116.284 31.1855C76.5991 40.727 31.9953 74.1385 16.6431 105.8C10.1392 119.204 9.90805 130.166 14.8604 137.594L17.5347 141.358L20.671 145.32Z" fill="#D5FF40"/>
<path d="M20.4729 145.122L17.5016 141.358L14.9924 137.825C-3.39713 104.612 59.5302 45.9103 116.052 31.2516C116.052 31.2516 116.052 31.2846 116.086 31.2846C53.8186 57.0365 3.20594 124.058 20.4729 145.122ZM20.671 145.32C2.54563 118.511 64.3834 51.457 116.284 31.1855C76.5991 40.727 31.9953 74.1385 16.6431 105.8C10.1392 119.204 9.90805 130.166 14.8604 137.594L17.5347 141.358L20.671 145.32Z" fill="#D5FF40"/>
<path d="M30.8405 155.621L27.7701 152.881L24.6667 149.81C19.7143 144.594 20.2755 134.095 27.473 119.205C42.7921 87.6094 82.4105 48.2882 116.053 31.2852C86.7025 52.316 50.5176 94.8727 35.1985 126.469C27.704 141.92 26.5816 151.923 30.8405 155.621Z" fill="#D5FF40"/>
<path d="M30.8405 155.621L27.7701 152.881L24.6667 149.81C19.7143 144.594 20.2755 134.095 27.473 119.205C42.7921 87.6094 82.4105 48.2882 116.053 31.2852C86.7025 52.316 50.5176 94.8727 35.1985 126.469C27.704 141.92 26.5816 151.923 30.8405 155.621Z" fill="#D5FF40"/>
<path d="M30.8406 155.62L27.7702 152.881L24.6668 149.81C19.7144 144.593 20.2758 134.094 27.4731 119.204C42.7922 87.6088 82.4106 48.2874 116.053 31.2846C86.7026 52.3153 50.5177 94.8721 35.1986 126.468C27.7042 141.919 26.5817 151.923 30.8406 155.62ZM31.0388 155.818C26.8127 152.154 27.9352 142.183 35.4627 126.699C50.815 95.0372 86.9998 52.2823 116.317 31.1855C82.5096 48.0233 42.6602 87.3117 27.308 118.973C20.1107 133.83 19.5824 144.362 24.5346 149.612L27.8362 152.881L31.0388 155.818Z" fill="#D5FF40"/>
<path d="M30.8406 155.62L27.7702 152.881L24.6668 149.81C19.7144 144.593 20.2758 134.094 27.4731 119.204C42.7922 87.6088 82.4106 48.2874 116.053 31.2846C86.7026 52.3153 50.5177 94.8721 35.1986 126.468C27.7042 141.919 26.5817 151.923 30.8406 155.62ZM31.0388 155.818C26.8127 152.154 27.9352 142.183 35.4627 126.699C50.815 95.0372 86.9998 52.2823 116.317 31.1855C82.5096 48.0233 42.6602 87.3117 27.308 118.973C20.1107 133.83 19.5824 144.362 24.5346 149.612L27.8362 152.881L31.0388 155.818Z" fill="#D5FF40"/>
<path d="M41.6036 163.579C39.8869 162.456 37.6088 160.937 35.9249 159.715L35.3308 159.253C31.8311 156.612 33.4818 147.07 41.1414 131.256C56.4605 99.6602 90.0042 54.9573 116.119 31.3184C116.119 31.3184 116.152 31.3184 116.152 31.3513C94.8244 58.2918 65.1766 105.636 49.8575 137.232C42.0989 153.31 39.4906 162.192 41.6036 163.579Z" fill="#D5FF40"/>
<path d="M41.6036 163.579C39.8869 162.456 37.6088 160.937 35.9249 159.715L35.3308 159.253C31.8311 156.612 33.4818 147.07 41.1414 131.256C56.4605 99.6602 90.0042 54.9573 116.119 31.3184C116.119 31.3184 116.152 31.3184 116.152 31.3513C94.8244 58.2918 65.1766 105.636 49.8575 137.232C42.0989 153.31 39.4906 162.192 41.6036 163.579Z" fill="#D5FF40"/>
<path d="M41.6039 163.576C39.8872 162.455 37.6092 160.935 35.9253 159.715L35.3311 159.252C31.8315 156.611 33.4821 147.069 41.1417 131.255C56.4608 99.6592 90.0045 54.9564 116.12 31.3174C116.12 31.3174 116.153 31.3174 116.153 31.3504C94.8248 58.2909 65.177 105.635 49.8579 137.231C42.0992 153.309 39.491 162.191 41.6039 163.576ZM41.8021 163.676C39.7221 162.356 42.3633 153.474 50.1549 137.396C65.5071 105.734 95.1218 58.1589 116.285 31.1523C90.0045 54.6593 56.2298 99.3951 40.8776 131.057C33.218 146.838 31.6003 156.413 35.1329 159.12L35.9253 159.715C37.7082 160.935 40.0192 162.554 41.8021 163.676Z" fill="#D5FF40"/>
<path d="M41.6039 163.576C39.8872 162.455 37.6092 160.935 35.9253 159.715L35.3311 159.252C31.8315 156.611 33.4821 147.069 41.1417 131.255C56.4608 99.6592 90.0045 54.9564 116.12 31.3174C116.12 31.3174 116.153 31.3174 116.153 31.3504C94.8248 58.2909 65.177 105.635 49.8579 137.231C42.0992 153.309 39.491 162.191 41.6039 163.576ZM41.8021 163.676C39.7221 162.356 42.3633 153.474 50.1549 137.396C65.5071 105.734 95.1218 58.1589 116.285 31.1523C90.0045 54.6593 56.2298 99.3951 40.8776 131.057C33.218 146.838 31.6003 156.413 35.1329 159.12L35.9253 159.715C37.7082 160.935 40.0192 162.554 41.8021 163.676Z" fill="#D5FF40"/>
<path d="M52.7297 169.455C50.7487 168.53 48.1405 167.276 46.1926 166.252C45.2352 165.691 48.5697 157.239 56.3944 141.062C71.7135 109.466 98.456 60.405 116.152 31.3516H116.185C103.639 62.9472 81.0899 114.055 65.7708 145.651C57.9462 161.861 53.5221 169.785 52.7297 169.455Z" fill="#D5FF40"/>
<path d="M52.7297 169.455C50.7487 168.53 48.1405 167.276 46.1926 166.252C45.2352 165.691 48.5697 157.239 56.3944 141.062C71.7135 109.466 98.456 60.405 116.152 31.3516H116.185C103.639 62.9472 81.0899 114.055 65.7708 145.651C57.9462 161.861 53.5221 169.785 52.7297 169.455Z" fill="#D5FF40"/>
<path d="M52.73 169.454C50.7492 168.53 48.141 167.275 46.1931 166.252C45.2357 165.69 48.5702 157.239 56.3948 141.061C71.714 109.465 98.4563 60.4041 116.153 31.3506H116.186C103.64 62.9463 81.0903 114.054 65.7712 145.65C57.9465 161.86 53.5225 169.784 52.73 169.454ZM52.9612 169.554C53.7867 169.917 58.2767 161.993 66.1344 145.815C81.4864 114.153 103.937 62.8473 116.318 31.1855C98.4234 60.1071 71.4828 109.234 56.1306 140.896C48.3061 157.074 45.0045 165.557 46.028 166.119C48.0419 167.143 50.7492 168.53 52.7961 169.454L52.9612 169.554Z" fill="#D5FF40"/>
<path d="M52.73 169.454C50.7492 168.53 48.141 167.275 46.1931 166.252C45.2357 165.69 48.5702 157.239 56.3948 141.061C71.714 109.465 98.4563 60.4041 116.153 31.3506H116.186C103.64 62.9463 81.0903 114.054 65.7712 145.65C57.9465 161.86 53.5225 169.784 52.73 169.454ZM52.9612 169.554C53.7867 169.917 58.2767 161.993 66.1344 145.815C81.4864 114.153 103.937 62.8473 116.318 31.1855C98.4234 60.1071 71.4828 109.234 56.1306 140.896C48.3061 157.074 45.0045 165.557 46.028 166.119C48.0419 167.143 50.7492 168.53 52.7961 169.454L52.9612 169.554Z" fill="#D5FF40"/>
<path d="M64.5495 173.68L61.7103 172.823L57.5503 171.402C59.6634 172.162 64.8797 164.536 72.7044 148.457C88.0565 116.895 107.503 64.5322 116.252 31.3848H116.285C112.917 66.282 97.7961 120.064 82.4769 151.66C74.7845 167.507 68.5115 174.77 64.5495 173.68Z" fill="#D5FF40"/>
<path d="M64.5495 173.68L61.7103 172.823L57.5503 171.402C59.6634 172.162 64.8797 164.536 72.7044 148.457C88.0565 116.895 107.503 64.5322 116.252 31.3848H116.285C112.917 66.282 97.7961 120.064 82.4769 151.66C74.7845 167.507 68.5115 174.77 64.5495 173.68Z" fill="#D5FF40"/>
<path d="M64.5498 173.679L61.7104 172.821L57.5506 171.401C59.6636 172.161 64.88 164.535 72.7046 148.456C88.0568 116.893 107.503 64.5309 116.252 31.3835H116.285C112.917 66.2807 97.7963 120.063 82.4772 151.658C74.7846 167.505 68.5116 174.77 64.5498 173.679ZM64.781 173.746C68.7758 174.836 75.0817 167.571 82.7743 151.725C98.1265 120.063 113.115 66.0825 116.285 31.1523C107.404 64.2007 87.7596 116.662 72.4075 148.324C64.6159 164.402 59.3994 172.03 57.3525 171.303L61.7104 172.821L64.781 173.746Z" fill="#D5FF40"/>
<path d="M64.5498 173.679L61.7104 172.821L57.5506 171.401C59.6636 172.161 64.88 164.535 72.7046 148.456C88.0568 116.893 107.503 64.5309 116.252 31.3835H116.285C112.917 66.2807 97.7963 120.063 82.4772 151.658C74.7846 167.505 68.5116 174.77 64.5498 173.679ZM64.781 173.746C68.7758 174.836 75.0817 167.571 82.7743 151.725C98.1265 120.063 113.115 66.0825 116.285 31.1523C107.404 64.2007 87.7596 116.662 72.4075 148.324C64.6159 164.402 59.3994 172.03 57.3525 171.303L61.7104 172.821L64.781 173.746Z" fill="#D5FF40"/>
<path d="M77.4914 176.29C75.6095 175.992 73.1334 175.629 71.2845 175.299L69.7988 175.002C74.9822 176.091 81.9485 169.025 89.5089 153.41C104.828 121.814 116.813 67.2395 116.284 31.3848H116.317C122.227 68.1638 114.601 123.465 99.2815 155.061C91.9852 170.148 84.2595 177.115 77.4914 176.29Z" fill="#D5FF40"/>
<path d="M77.4914 176.29C75.6095 175.992 73.1334 175.629 71.2845 175.299L69.7988 175.002C74.9822 176.091 81.9485 169.025 89.5089 153.41C104.828 121.814 116.813 67.2395 116.284 31.3848H116.317C122.227 68.1638 114.601 123.465 99.2815 155.061C91.9852 170.148 84.2595 177.115 77.4914 176.29Z" fill="#D5FF40"/>
<path d="M77.4912 176.289C75.6094 175.991 73.1332 175.628 71.2843 175.298L69.7986 175.001C74.9822 176.09 81.9483 169.024 89.5089 153.409C104.828 121.813 116.813 67.2383 116.284 31.3836H116.317C122.227 68.1628 114.601 123.463 99.2815 155.06C91.985 170.147 84.2595 177.114 77.4912 176.289ZM77.7553 176.321C84.5565 177.114 92.3152 170.181 99.6446 155.125C114.997 123.463 122.458 67.9646 116.317 31.1855C116.714 67.0071 104.597 121.681 89.2448 153.342C81.6842 168.958 74.751 176.057 69.6006 174.935L71.3174 175.298C73.1992 175.628 75.7745 176.09 77.7553 176.321Z" fill="#D5FF40"/>
<path d="M77.4912 176.289C75.6094 175.991 73.1332 175.628 71.2843 175.298L69.7986 175.001C74.9822 176.09 81.9483 169.024 89.5089 153.409C104.828 121.813 116.813 67.2383 116.284 31.3836H116.317C122.227 68.1628 114.601 123.463 99.2815 155.06C91.985 170.147 84.2595 177.114 77.4912 176.289ZM77.7553 176.321C84.5565 177.114 92.3152 170.181 99.6446 155.125C114.997 123.463 122.458 67.9646 116.317 31.1855C116.714 67.0071 104.597 121.681 89.2448 153.342C81.6842 168.958 74.751 176.057 69.6006 174.935L71.3174 175.298C73.1992 175.628 75.7745 176.09 77.7553 176.321Z" fill="#D5FF40"/>
<path d="M91.9192 176.947C89.344 176.981 85.8774 176.947 83.3022 176.848C90.9948 177.278 99.1827 170.377 106.248 155.752C121.567 124.156 126.057 68.5583 116.318 31.416H116.351C131.307 68.6244 131.042 124.255 115.723 155.851C109.054 169.651 100.602 176.584 91.9192 176.947Z" fill="#D5FF40"/>
<path d="M91.9192 176.947C89.344 176.981 85.8774 176.947 83.3022 176.848C90.9948 177.278 99.1827 170.377 106.248 155.752C121.567 124.156 126.057 68.5583 116.318 31.416H116.351C131.307 68.6244 131.042 124.255 115.723 155.851C109.054 169.651 100.602 176.584 91.9192 176.947Z" fill="#D5FF40"/>
<path d="M91.9194 176.948C89.3443 176.981 85.8776 176.948 83.3025 176.85C90.995 177.279 99.1827 170.379 106.248 155.752C121.567 124.157 126.057 68.5589 116.318 31.4166H116.351C131.307 68.625 131.043 124.256 115.724 155.852C109.054 169.653 100.603 176.585 91.9194 176.948ZM92.2166 176.916C125.958 172.558 139.462 90.8443 116.318 31.1855C125.958 68.2948 121.336 124.058 105.984 155.719C98.8857 170.379 90.7309 177.279 83.0713 176.816C85.7786 176.916 89.4762 177.114 92.2166 176.916Z" fill="#D5FF40"/>
<path d="M91.9194 176.948C89.3443 176.981 85.8776 176.948 83.3025 176.85C90.995 177.279 99.1827 170.379 106.248 155.752C121.567 124.157 126.057 68.5589 116.318 31.4166H116.351C131.307 68.625 131.043 124.256 115.724 155.852C109.054 169.653 100.603 176.585 91.9194 176.948ZM92.2166 176.916C125.958 172.558 139.462 90.8443 116.318 31.1855C125.958 68.2948 121.336 124.058 105.984 155.719C98.8857 170.379 90.7309 177.279 83.0713 176.816C85.7786 176.916 89.4762 177.114 92.2166 176.916Z" fill="#D5FF40"/>
<path d="M108.493 174.737L105.423 175.398C103.376 175.729 100.701 176.191 98.6543 176.455C107.667 175.398 116.087 168.432 122.425 155.391C137.744 123.795 135.037 68.3623 116.417 31.4512H116.45C139.99 67.537 146.626 122.309 131.307 153.905C125.562 165.692 117.539 172.625 108.493 174.737Z" fill="#D5FF40"/>
<path d="M108.493 174.737L105.423 175.398C103.376 175.729 100.701 176.191 98.6543 176.455C107.667 175.398 116.087 168.432 122.425 155.391C137.744 123.795 135.037 68.3623 116.417 31.4512H116.45C139.99 67.537 146.626 122.309 131.307 153.905C125.562 165.692 117.539 172.625 108.493 174.737Z" fill="#D5FF40"/>
<path d="M108.493 174.737L105.422 175.396C103.376 175.727 100.701 176.189 98.6544 176.453C107.668 175.396 116.086 168.43 122.425 155.389C137.745 123.794 135.037 68.3608 116.417 31.4497H116.45C139.99 67.5354 146.626 122.308 131.307 153.903C125.562 165.69 117.539 172.623 108.493 174.737ZM108.823 174.638C117.836 172.491 125.859 165.591 131.571 153.772C146.923 122.11 140.089 67.2383 116.285 31.1855C134.839 68.1297 137.447 123.728 122.095 155.389C115.756 168.464 107.337 175.429 98.3242 176.453C100.437 176.156 103.31 175.761 105.422 175.364L108.823 174.638Z" fill="#D5FF40"/>
<path d="M108.493 174.737L105.422 175.396C103.376 175.727 100.701 176.189 98.6544 176.453C107.668 175.396 116.086 168.43 122.425 155.389C137.745 123.794 135.037 68.3608 116.417 31.4497H116.45C139.99 67.5354 146.626 122.308 131.307 153.903C125.562 165.69 117.539 172.623 108.493 174.737ZM108.823 174.638C117.836 172.491 125.859 165.591 131.571 153.772C146.923 122.11 140.089 67.2383 116.285 31.1855C134.839 68.1297 137.447 123.728 122.095 155.389C115.756 168.464 107.337 175.429 98.3242 176.453C100.437 176.156 103.31 175.761 105.422 175.364L108.823 174.638Z" fill="#D5FF40"/>
<path d="M127.179 168.102C124.802 169.158 121.666 170.577 119.256 171.501L116.086 172.624C124.703 169.785 132.164 162.984 137.414 152.155C152.733 120.559 143.357 66.5461 116.482 31.3848H116.515C147.781 64.7632 160.722 117.357 145.404 148.952C140.946 158.065 134.641 164.437 127.179 168.102Z" fill="#D5FF40"/>
<path d="M127.179 168.102C124.802 169.158 121.666 170.577 119.256 171.501L116.086 172.624C124.703 169.785 132.164 162.984 137.414 152.155C152.733 120.559 143.357 66.5461 116.482 31.3848H116.515C147.781 64.7632 160.722 117.357 145.404 148.952C140.946 158.065 134.641 164.437 127.179 168.102Z" fill="#D5FF40"/>
<path d="M127.181 168.1C124.804 169.157 121.667 170.576 119.257 171.501L116.088 172.624C124.705 169.784 132.166 162.984 137.416 152.154C152.735 120.558 143.358 66.5452 116.484 31.3838H116.517C147.783 64.7623 160.724 117.356 145.406 148.951C140.948 158.064 134.643 164.436 127.181 168.1ZM127.544 167.935C134.973 164.27 141.213 157.898 145.604 148.852C160.956 117.191 147.816 64.5313 116.286 31.2188C154.122 83.7792 153.825 157.866 115.725 172.755L119.257 171.534C121.766 170.477 125.101 169.124 127.544 167.935Z" fill="#D5FF40"/>
<path d="M127.181 168.1C124.804 169.157 121.667 170.576 119.257 171.501L116.088 172.624C124.705 169.784 132.166 162.984 137.416 152.154C152.735 120.558 143.358 66.5452 116.484 31.3838H116.517C147.783 64.7623 160.724 117.356 145.406 148.951C140.948 158.064 134.643 164.436 127.181 168.1ZM127.544 167.935C134.973 164.27 141.213 157.898 145.604 148.852C160.956 117.191 147.816 64.5313 116.286 31.2188C154.122 83.7792 153.825 157.866 115.725 172.755L119.257 171.534C121.766 170.477 125.101 169.124 127.544 167.935Z" fill="#D5FF40"/>
<path d="M146.527 155.357C139.33 161.101 139.33 161.101 135.302 163.645C141.641 159.682 146.923 153.839 150.687 146.047C166.007 114.451 150.687 63.1785 116.483 31.3848C116.483 31.3848 116.483 31.3848 116.516 31.3848C154.319 60.5043 172.543 109.631 157.19 141.26C154.484 146.906 150.852 151.594 146.527 155.357Z" fill="#D5FF40"/>
<path d="M146.527 155.357C139.33 161.101 139.33 161.101 135.302 163.645C141.641 159.682 146.923 153.839 150.687 146.047C166.007 114.451 150.687 63.1785 116.483 31.3848C116.483 31.3848 116.483 31.3848 116.516 31.3848C154.319 60.5043 172.543 109.631 157.19 141.26C154.484 146.906 150.852 151.594 146.527 155.357Z" fill="#D5FF40"/>
<path d="M146.526 155.356C139.329 161.1 139.329 161.1 135.301 163.642C141.64 159.681 146.922 153.838 150.686 146.046C166.005 114.45 150.686 63.1775 116.482 31.3836C116.482 31.3836 116.482 31.3836 116.515 31.3836C154.318 60.5032 172.543 109.63 157.19 141.259C154.483 146.904 150.851 151.593 146.526 155.356ZM146.856 155.06C151.115 151.328 154.682 146.673 157.388 141.094C172.741 109.432 154.35 60.239 116.284 31.1855C150.521 63.0453 165.808 114.516 150.455 146.178C146.658 154.036 141.31 159.912 134.905 163.874C142.102 159.054 142.862 158.558 146.856 155.06Z" fill="#D5FF40"/>
<path d="M146.526 155.356C139.329 161.1 139.329 161.1 135.301 163.642C141.64 159.681 146.922 153.838 150.686 146.046C166.005 114.45 150.686 63.1775 116.482 31.3836C116.482 31.3836 116.482 31.3836 116.515 31.3836C154.318 60.5032 172.543 109.63 157.19 141.259C154.483 146.904 150.851 151.593 146.526 155.356ZM146.856 155.06C151.115 151.328 154.682 146.673 157.388 141.094C172.741 109.432 154.35 60.239 116.284 31.1855C150.521 63.0453 165.808 114.516 150.455 146.178C146.658 154.036 141.31 159.912 134.905 163.874C142.102 159.054 142.862 158.558 146.856 155.06Z" fill="#D5FF40"/>
<path d="M163.067 136.175L161.483 138.585C159.336 141.49 156.365 145.287 154.022 148.027C156.828 144.924 159.237 141.358 161.185 137.364C176.505 105.768 156.53 58.3578 116.549 31.3183C116.549 31.3183 116.549 31.3181 116.549 31.2852C159.007 55.0562 181.027 99.8251 165.708 131.421C164.916 133.105 164.025 134.689 163.067 136.175Z" fill="#D5FF40"/>
<path d="M163.067 136.175L161.483 138.585C159.336 141.49 156.365 145.287 154.022 148.027C156.828 144.924 159.237 141.358 161.185 137.364C176.505 105.768 156.53 58.3578 116.549 31.3183C116.549 31.3183 116.549 31.3181 116.549 31.2852C159.007 55.0562 181.027 99.8251 165.708 131.421C164.916 133.105 164.025 134.689 163.067 136.175Z" fill="#D5FF40"/>
<path d="M163.067 136.174L161.482 138.585C159.335 141.49 156.364 145.287 154.021 148.027C156.827 144.923 159.238 141.358 161.184 137.363C176.504 105.767 156.529 58.3572 116.548 31.3175C116.548 31.3175 116.548 31.3175 116.548 31.2846C159.006 55.0557 181.028 99.8245 165.709 131.42C164.915 133.104 164.024 134.689 163.067 136.174ZM163.331 135.778C164.222 134.359 165.08 132.84 165.84 131.288C181.193 99.6263 159.006 54.8245 116.317 31.1855C156.364 58.2581 176.372 105.899 161.02 137.561C159.039 141.622 156.563 145.254 153.69 148.39C156.134 145.518 159.27 141.622 161.482 138.585L163.331 135.778Z" fill="#D5FF40"/>
<path d="M163.067 136.174L161.482 138.585C159.335 141.49 156.364 145.287 154.021 148.027C156.827 144.923 159.238 141.358 161.184 137.363C176.504 105.767 156.529 58.3572 116.548 31.3175C116.548 31.3175 116.548 31.3175 116.548 31.2846C159.006 55.0557 181.028 99.8245 165.709 131.42C164.915 133.104 164.024 134.689 163.067 136.174ZM163.331 135.778C164.222 134.359 165.08 132.84 165.84 131.288C181.193 99.6263 159.006 54.8245 116.317 31.1855C156.364 58.2581 176.372 105.899 161.02 137.561C159.039 141.622 156.563 145.254 153.69 148.39C156.134 145.518 159.27 141.622 161.482 138.585L163.331 135.778Z" fill="#D5FF40"/>
<path d="M173.665 112.602C170.859 121.153 170.694 121.681 168.383 126.601C183.404 95.0378 160.294 52.4811 116.549 31.3183C116.549 31.3183 116.549 31.3181 116.549 31.2852C158.314 47.4297 182.216 82.459 173.665 112.602Z" fill="#D5FF40"/>
<path d="M173.665 112.602C170.859 121.153 170.694 121.681 168.383 126.601C183.404 95.0378 160.294 52.4811 116.549 31.3183C116.549 31.3183 116.549 31.3181 116.549 31.2852C158.314 47.4297 182.216 82.459 173.665 112.602Z" fill="#D5FF40"/>
<path d="M173.664 112.601C170.858 121.152 170.693 121.681 168.382 126.6C183.403 95.0372 160.293 52.4804 116.548 31.3175C116.548 31.3175 116.548 31.3175 116.548 31.2846C158.313 47.4291 182.215 82.4584 173.664 112.601ZM173.797 112.139C182.447 72.5208 148.21 43.7644 116.317 31.1855C160.26 52.4804 183.471 95.3674 168.183 127.029C171.188 120.063 172.575 116.893 173.797 112.139Z" fill="#D5FF40"/>
<path d="M173.664 112.601C170.858 121.152 170.693 121.681 168.382 126.6C183.403 95.0372 160.293 52.4804 116.548 31.3175C116.548 31.3175 116.548 31.3175 116.548 31.2846C158.313 47.4291 182.215 82.4584 173.664 112.601ZM173.797 112.139C182.447 72.5208 148.21 43.7644 116.317 31.1855C160.26 52.4804 183.471 95.3674 168.183 127.029C171.188 120.063 172.575 116.893 173.797 112.139Z" fill="#D5FF40"/>
<path d="M177.001 88.6985L176.967 90.3822C176.735 94.014 176.34 98.8342 175.878 102.466C180.467 74.0727 156.498 44.0618 116.549 31.2517C116.549 31.2517 116.549 31.2517 116.549 31.2188C153.625 39.7367 177.066 63.3756 177.001 88.6985Z" fill="#D5FF40"/>
<path d="M177.001 88.6985L176.967 90.3822C176.735 94.014 176.34 98.8342 175.878 102.466C180.467 74.0727 156.498 44.0618 116.549 31.2517C116.549 31.2517 116.549 31.2517 116.549 31.2188C153.625 39.7367 177.066 63.3756 177.001 88.6985Z" fill="#D5FF40"/>
<path d="M177 88.6981L176.966 90.3819C176.736 94.0136 176.339 98.8338 175.877 102.465C180.466 74.0723 156.497 44.0614 116.548 31.2514C116.548 31.2514 116.548 31.2514 116.548 31.2184C153.624 39.7363 177.065 63.3753 177 88.6981ZM177 88.2689C174.557 47.3628 129.92 34.2228 116.284 31.1523C156.497 44.0283 180.566 74.3365 175.811 102.895C176.273 99.164 176.768 94.1456 176.966 90.3819L177 88.2689Z" fill="#D5FF40"/>
<path d="M177 88.6981L176.966 90.3819C176.736 94.0136 176.339 98.8338 175.877 102.465C180.466 74.0723 156.497 44.0614 116.548 31.2514C116.548 31.2514 116.548 31.2514 116.548 31.2184C153.624 39.7363 177.065 63.3753 177 88.6981ZM177 88.2689C174.557 47.3628 129.92 34.2228 116.284 31.1523C156.497 44.0283 180.566 74.3365 175.811 102.895C176.273 99.164 176.768 94.1456 176.966 90.3819L177 88.2689Z" fill="#D5FF40"/>
<path d="M174.458 67.4366L175.745 73.5774L176.537 79.4541C174.227 56.5746 151.479 36.9964 116.582 31.2517V31.2188C148.31 33.4968 169.737 48.0565 174.458 67.4366Z" fill="#D5FF40"/>
<path d="M174.458 67.4366L175.745 73.5774L176.537 79.4541C174.227 56.5746 151.479 36.9964 116.582 31.2517V31.2188C148.31 33.4968 169.737 48.0565 174.458 67.4366Z" fill="#D5FF40"/>
<path d="M174.458 67.4363L175.745 73.5773L176.537 79.454C174.226 56.5743 151.479 36.9962 116.581 31.2516V31.2185C148.309 33.4966 169.737 48.0564 174.458 67.4363ZM174.358 67.0732C169.57 47.7592 148.078 33.3315 116.284 31.1855C151.446 36.9962 174.325 56.7724 176.571 79.8501L175.712 73.5773C175.315 71.5963 174.853 68.9881 174.358 67.0732Z" fill="#D5FF40"/>
<path d="M174.458 67.4363L175.745 73.5773L176.537 79.454C174.226 56.5743 151.479 36.9962 116.581 31.2516V31.2185C148.309 33.4966 169.737 48.0564 174.458 67.4363ZM174.358 67.0732C169.57 47.7592 148.078 33.3315 116.284 31.1855C151.446 36.9962 174.325 56.7724 176.571 79.8501L175.712 73.5773C175.315 71.5963 174.853 68.9881 174.358 67.0732Z" fill="#D5FF40"/>
<path d="M168.02 49.6745C169.242 52.3818 170.793 56.0135 171.849 58.7869L172.081 59.4471C164.289 40.9915 145.602 31.4831 116.549 31.186V31.153C142.928 28.5448 161.417 36.0723 168.02 49.6745Z" fill="#D5FF40"/>
<path d="M168.02 49.6745C169.242 52.3818 170.793 56.0135 171.849 58.7869L172.081 59.4471C164.289 40.9915 145.602 31.4831 116.549 31.186V31.153C142.928 28.5448 161.417 36.0723 168.02 49.6745Z" fill="#D5FF40"/>
<path d="M168.019 49.6738C169.241 52.3811 170.793 56.0128 171.849 58.786L172.08 59.4464C164.288 40.9908 145.602 31.4823 116.548 31.1853V31.1521C142.928 28.5441 161.416 36.0716 168.019 49.6738ZM167.887 49.3767C161.252 35.8074 142.696 28.4119 116.284 31.1853C145.965 31.3172 166.401 42.8067 172.212 59.8095L171.849 58.786C170.727 55.9468 169.207 52.1499 167.887 49.3767Z" fill="#D5FF40"/>
<path d="M168.019 49.6738C169.241 52.3811 170.793 56.0128 171.849 58.786L172.08 59.4464C164.288 40.9908 145.602 31.4823 116.548 31.1853V31.1521C142.928 28.5441 161.416 36.0716 168.019 49.6738ZM167.887 49.3767C161.252 35.8074 142.696 28.4119 116.284 31.1853C145.965 31.3172 166.401 42.8067 172.212 59.8095L171.849 58.786C170.727 55.9468 169.207 52.1499 167.887 49.3767Z" fill="#D5FF40"/>
<path d="M159.337 35.4452L159.468 35.6432C161.053 37.9213 163.133 40.9917 164.619 43.3358C157.851 31.8795 140.748 26.7952 116.548 31.1201C116.548 31.1201 116.548 31.0871 116.515 31.0871C137.744 24.6161 152.799 26.7622 159.337 35.4452Z" fill="#D5FF40"/>
<path d="M159.337 35.4452L159.468 35.6432C161.053 37.9213 163.133 40.9917 164.619 43.3358C157.851 31.8795 140.748 26.7952 116.548 31.1201C116.548 31.1201 116.548 31.0871 116.515 31.0871C137.744 24.6161 152.799 26.7622 159.337 35.4452Z" fill="#D5FF40"/>
<path d="M159.335 35.4454L159.468 35.6435C161.053 37.9215 163.133 40.9919 164.619 43.3361C157.851 31.8797 140.748 26.7954 116.548 31.1203C116.548 31.1203 116.548 31.0874 116.515 31.0874C137.744 24.6164 152.799 26.7624 159.335 35.4454ZM159.17 35.2474C152.667 26.5973 137.546 24.5503 116.317 31.1864C140.715 26.8284 157.982 32.0448 164.75 43.6002C163.199 41.1902 161.119 37.9876 159.468 35.6435L159.17 35.2474Z" fill="#D5FF40"/>
<path d="M159.335 35.4454L159.468 35.6435C161.053 37.9215 163.133 40.9919 164.619 43.3361C157.851 31.8797 140.748 26.7954 116.548 31.1203C116.548 31.1203 116.548 31.0874 116.515 31.0874C137.744 24.6164 152.799 26.7624 159.335 35.4454ZM159.17 35.2474C152.667 26.5973 137.546 24.5503 116.317 31.1864C140.715 26.8284 157.982 32.0448 164.75 43.6002C163.199 41.1902 161.119 37.9876 159.468 35.6435L159.17 35.2474Z" fill="#D5FF40"/>
<path d="M149.3 24.22C151.149 26.069 153.593 28.5781 155.343 30.5261C147.749 23.2626 136.127 23.4277 116.516 31.0873C116.516 31.0873 116.516 31.0543 116.483 31.0543C132.826 21.3478 144.216 19.4329 149.3 24.22Z" fill="#D5FF40"/>
<path d="M149.3 24.22C151.149 26.069 153.593 28.5781 155.343 30.5261C147.749 23.2626 136.127 23.4277 116.516 31.0873C116.516 31.0873 116.516 31.0543 116.483 31.0543C132.826 21.3478 144.216 19.4329 149.3 24.22Z" fill="#D5FF40"/>
<path d="M149.3 24.2193C151.148 26.0681 153.592 28.5774 155.341 30.5252C147.748 23.2619 136.126 23.427 116.515 31.0866C116.515 31.0866 116.515 31.0535 116.482 31.0535C132.825 21.3469 144.215 19.4322 149.3 24.2193ZM149.2 24.1203C144.116 19.333 132.693 21.314 116.284 31.1526C135.697 23.1628 149.465 23.592 155.507 30.7234C153.658 28.7095 151.181 26.0352 149.2 24.1203Z" fill="#D5FF40"/>
<path d="M149.3 24.2193C151.148 26.0681 153.592 28.5774 155.341 30.5252C147.748 23.2619 136.126 23.427 116.515 31.0866C116.515 31.0866 116.515 31.0535 116.482 31.0535C132.825 21.3469 144.215 19.4322 149.3 24.2193ZM149.2 24.1203C144.116 19.333 132.693 21.314 116.284 31.1526C135.697 23.1628 149.465 23.592 155.507 30.7234C153.658 28.7095 151.181 26.0352 149.2 24.1203Z" fill="#D5FF40"/>
</svg>
